<?xml version="1.0" encoding="utf-8"?>
<!-- Generator: Adobe Illustrator 28.0.0, SVG Export Plug-In . SVG Version: 6.00 Build 0)  -->
<svg version="1.1" id="a" xmlns="http://www.w3.org/2000/svg" xmlns:xlink="http://www.w3.org/1999/xlink" x="0px" y="0px"
	 viewBox="0 0 50.4 40.8" style="enable-background:new 0 0 50.4 40.8;" xml:space="preserve">
<style type="text/css">
	.st0{fill:#465577;}
	.st1{fill:#FFFFFF;}
</style>
<g>
	<path class="st0" d="M29.9,1.4h-9.5c-8.9,0-13.4,0-16.2,2.8C1.5,7,1.5,11.4,1.5,20.4c0,8.9,0,13.4,2.8,16.2
		c2.8,2.8,7.3,2.8,16.2,2.8h9.5c8.9,0,13.4,0,16.2-2.8c2.8-2.8,2.8-7.3,2.8-16.2c0-8.9,0-13.4-2.8-16.2C43.4,1.4,38.9,1.4,29.9,1.4z
		"/>
	<path class="st1" d="M28.1,13.3c0-1,0.8-1.8,1.8-1.8h11.9c1,0,1.8,0.8,1.8,1.8s-0.8,1.8-1.8,1.8H29.9
		C28.9,15.1,28.1,14.3,28.1,13.3z"/>
	<path class="st1" d="M30.5,20.4c0-1,0.8-1.8,1.8-1.8h9.5c1,0,1.8,0.8,1.8,1.8c0,1-0.8,1.8-1.8,1.8h-9.5
		C31.3,22.2,30.5,21.4,30.5,20.4z"/>
	<path class="st1" d="M32.9,27.5c0-1,0.8-1.8,1.8-1.8h7.1c1,0,1.8,0.8,1.8,1.8c0,1-0.8,1.8-1.8,1.8h-7.1
		C33.7,29.3,32.9,28.5,32.9,27.5z"/>
	<path class="st1" d="M18.1,18c2.6,0,4.7-2.1,4.7-4.7c0-2.6-2.1-4.7-4.7-4.7c-2.6,0-4.7,2.1-4.7,4.7C13.3,15.9,15.4,18,18.1,18z"/>
	<path class="st1" d="M18.1,32.3c9.5,0,9.5-2.1,9.5-4.7c0-2.6-4.3-4.7-9.5-4.7c-5.2,0-9.5,2.1-9.5,4.7C8.6,30.1,8.6,32.3,18.1,32.3z
		"/>
</g>
</svg>
