<?xml version="1.0" encoding="utf-8"?>
<!-- Generator: Adobe Illustrator 28.0.0, SVG Export Plug-In . SVG Version: 6.00 Build 0)  -->
<svg version="1.1" id="a" xmlns="http://www.w3.org/2000/svg" xmlns:xlink="http://www.w3.org/1999/xlink" x="0px" y="0px"
	 viewBox="0 0 800 800" style="enable-background:new 0 0 800 800;" xml:space="preserve">
<style type="text/css">
	.st0{fill:#FFFFFF;}
	.st1{fill:#FFFFFF;fill-opacity:0;}
</style>
<g>
	<path class="st0" d="M553.7,387.5C496.7,387,450,432.9,449.6,490c-0.2,28.9,11.6,56.5,32.7,76.2l-31.5,38.5l14.6,58.7l59.5-72.5
		c18.8,5.6,38.9,5.6,57.7,0l59.5,72.5l14.6-58.7l-31.5-38.5c41.6-39,43.8-104.5,4.7-146.1c-19.7-21.1-47.4-32.9-76.2-32.7H553.7z
		 M553.7,561.1c-38.7-0.5-69.6-32.3-69.1-71s32.3-69.6,71-69.1c38.3,0.5,69.1,31.7,69.1,70C624.4,529.9,592.7,561.2,553.7,561.1z"/>
	<path class="st0" d="M595,326.9c-67.3,0-121.9-54.6-121.9-121.9H172.5c-18,0-32.5,14.6-32.5,32.5v325c0,18,14.6,32.5,32.5,32.5
		h243.8l9.3-11.4l15.1-18.5c-42.6-61.5-27.3-146,34.2-188.6c59.7-41.3,141.3-28.3,185.2,29.5v-97.5C640.5,320.7,618,327,595,326.9z
		 M383.7,507.3H221.2v-26h162.5V507.3z M400,393.5H221.2v-26H400V393.5z M497.5,328.5H221.2v-26h276.3V328.5z"/>
	<circle class="st0" cx="595" cy="205" r="81.3"/>
	<rect x="107.5" y="107.5" class="st1" width="585.1" height="585.1"/>
</g>
</svg>
