<?xml version="1.0" encoding="utf-8"?>
<!-- Generator: Adobe Illustrator 28.0.0, SVG Export Plug-In . SVG Version: 6.00 Build 0)  -->
<svg version="1.1" id="a" xmlns="http://www.w3.org/2000/svg" xmlns:xlink="http://www.w3.org/1999/xlink" x="0px" y="0px"
	 viewBox="0 0 800 800" style="enable-background:new 0 0 800 800;" xml:space="preserve">
<style type="text/css">
	.st0{fill:#FFFFFF;}
</style>
<path class="st0" d="M569.5,202.2H513c-0.1-31.2-25.3-56.4-56.5-56.5h-113c-31.2,0.1-56.4,25.3-56.5,56.5h-56.5
	c-31.2,0.1-56.4,25.3-56.5,56.5v339c0.1,31.2,25.3,56.4,56.5,56.5h339c31.2-0.1,56.4-25.3,56.5-56.5v-339
	C625.9,227.6,600.7,202.3,569.5,202.2z M258.8,569.5c-15.6,0-28.2-12.6-28.2-28.2s12.6-28.2,28.2-28.2s28.2,12.6,28.2,28.2
	S274.4,569.5,258.8,569.5z M258.8,456.5c-15.6,0-28.2-12.6-28.2-28.2s12.6-28.2,28.2-28.2s28.2,12.6,28.2,28.2
	S274.4,456.5,258.8,456.5z M258.8,343.5c-15.6,0-28.2-12.6-28.2-28.2s12.6-28.2,28.2-28.2s28.2,12.6,28.2,28.2
	S274.4,343.5,258.8,343.5z M541.2,569.5H371.8c-15.6,0-28.2-12.6-28.2-28.2s12.6-28.2,28.2-28.2h169.5c15.6,0,28.2,12.6,28.2,28.2
	S556.9,569.5,541.2,569.5z M541.2,456.5H371.8c-15.6,0-28.2-12.6-28.2-28.2s12.6-28.2,28.2-28.2h169.5c15.6,0,28.2,12.6,28.2,28.2
	S556.9,456.5,541.2,456.5z M541.2,343.5H371.8c-15.6,0-28.2-12.6-28.2-28.2s12.6-28.2,28.2-28.2h169.5c15.6,0,28.2,12.6,28.2,28.2
	S556.9,343.5,541.2,343.5z"/>
</svg>
