<?xml version="1.0" encoding="utf-8"?>
<!-- Generator: Adobe Illustrator 28.0.0, SVG Export Plug-In . SVG Version: 6.00 Build 0)  -->
<svg version="1.1" id="a" xmlns="http://www.w3.org/2000/svg" xmlns:xlink="http://www.w3.org/1999/xlink" x="0px" y="0px"
	 viewBox="0 0 24 24" style="enable-background:new 0 0 24 24;" xml:space="preserve">
<style type="text/css">
	.st0{fill:#465577;}
</style>
<g>
	<path class="st0" d="M12,12.4c1.4,0,4.7-1.7,4.7-5.8c0-0.6,0-1.1-0.1-1.6c-0.1-1-0.3-1.9-0.8-2.6C15.2,1.4,14,0.9,12,0.9
		c-2,0-3.2,0.6-3.9,1.5C7.6,3.1,7.4,4,7.3,5c0,0.5-0.1,1.1-0.1,1.6C7.3,10.7,10.6,12.4,12,12.4z M8,5.7C8,5.9,8.3,6.3,8.6,6.4
		C9,6.4,9.7,4.9,12,4.9c2.3,0,3,1.5,3.4,1.5c0.4,0,0.6-0.5,0.6-0.6c0,0.3,0,0.6,0,0.9c0,2-0.9,3.2-1.6,3.9c-0.9,0.9-2,1.2-2.4,1.2
		c-0.5,0-1.5-0.3-2.4-1.2C8.8,9.8,8,8.6,8,6.6C8,6.3,8,6,8,5.7z"/>
	<path class="st0" d="M20.8,18.3c-0.2-1.5-0.7-3.4-1.7-4.1c-0.7-0.5-3-1.7-4.1-2.3l0,0c-0.1-0.1-0.3,0-0.4,0
		c-0.5,0.4-1.1,0.7-1.7,0.8c-0.1,0-0.2,0.1-0.2,0.2L12,14.6L11.4,13c0-0.1-0.1-0.2-0.2-0.2c-0.6-0.1-1.2-0.4-1.7-0.8
		c-0.1-0.1-0.2-0.1-0.4,0c-1,0.5-3.4,1.8-4.1,2.3c-1.1,0.8-1.6,3.6-1.7,4.1c0,0.1,0,0.1,0,0.2c0,0.1,0.7,1.9,5.2,2.6
		c0.4,0.7,1,1.2,1.7,1.6c0.6,0.3,1.3,0.5,1.9,0.5c0.3,0,0.5,0,0.8-0.1c0.9-0.2,1.7-0.6,2.3-1.3c0.2-0.2,0.3-0.4,0.5-0.7
		c4.4-0.7,5.1-2.5,5.2-2.6C20.8,18.4,20.8,18.3,20.8,18.3z M15.5,19.2c0,0.8-0.4,1.5-0.9,2.1c-0.5,0.6-1.2,1-2,1.1
		c-0.2,0-0.4,0.1-0.7,0.1c-0.6,0-1.1-0.1-1.6-0.4c-0.7-0.4-1.2-0.9-1.6-1.6c-0.3-0.7-0.4-1.6-0.2-2.3c0.2-0.8,0.6-1.4,1.2-1.9
		c0.6-0.5,1.4-0.8,2.2-0.8c0.4,0,0.7,0.1,1,0.2c0.7,0.2,1.4,0.7,1.8,1.3C15.3,17.6,15.6,18.4,15.5,19.2z"/>
	<path class="st0" d="M12.6,19c0.3,0.1,0.7,0.2,1,0.3c0.3,0.1,0.6,0.3,0.8,0.5c0,0,0,0,0.1,0c0.1-0.3,0.1-0.5,0.1-0.8
		c0-0.3,0-0.6-0.1-0.8c-0.3,0.2-0.6,0.4-0.9,0.5C13.2,18.8,12.9,18.9,12.6,19z"/>
	<path class="st0" d="M14.4,19.8C14.3,19.8,14.4,19.8,14.4,19.8L14.4,19.8z"/>
	<path class="st0" d="M10.5,19.3c0.3-0.1,0.6-0.2,1-0.3c-0.4-0.1-0.7-0.2-1-0.3c-0.3-0.1-0.6-0.3-0.8-0.5c-0.1,0.3-0.1,0.5-0.1,0.8
		s0,0.6,0.1,0.8c0,0,0,0,0.1,0C9.9,19.6,10.2,19.4,10.5,19.3z"/>
	<path class="st0" d="M9.6,19.8C9.6,19.8,9.7,19.8,9.6,19.8L9.6,19.8z"/>
	<path class="st0" d="M12.5,16.5c0,0.3,0,0.7,0,1c0,0.4-0.1,0.7-0.2,1.1c0.2-0.3,0.5-0.5,0.8-0.7c0.3-0.2,0.6-0.3,0.9-0.5
		C13.6,16.9,13.1,16.6,12.5,16.5z"/>
	<path class="st0" d="M11.7,18.6c-0.1-0.3-0.2-0.7-0.2-1.1c0-0.3,0-0.7,0-1c-0.6,0.1-1.1,0.4-1.5,0.9c0.3,0.2,0.6,0.3,0.9,0.5
		C11.2,18.1,11.5,18.3,11.7,18.6z"/>
	<path class="st0" d="M11.5,20.5c0-0.4,0.1-0.7,0.2-1.1c-0.2,0.3-0.5,0.5-0.8,0.7c-0.3,0.2-0.6,0.3-0.9,0.5c0.4,0.4,0.9,0.8,1.5,0.9
		C11.5,21.2,11.5,20.9,11.5,20.5z"/>
	<path class="st0" d="M12.3,19.5c0.1,0.3,0.2,0.7,0.2,1.1c0,0.3,0,0.7,0,1c0.6-0.1,1.1-0.4,1.5-0.9c-0.3-0.2-0.6-0.3-0.9-0.5
		C12.8,20,12.5,19.7,12.3,19.5z"/>
</g>
</svg>
