<?xml version="1.0" encoding="utf-8"?>
<!-- Generator: Adobe Illustrator 28.0.0, SVG Export Plug-In . SVG Version: 6.00 Build 0)  -->
<svg version="1.1" id="a" xmlns="http://www.w3.org/2000/svg" xmlns:xlink="http://www.w3.org/1999/xlink" x="0px" y="0px"
	 viewBox="0 0 24 24" style="enable-background:new 0 0 24 24;" xml:space="preserve">
<style type="text/css">
	.st0{fill:#465577;}
</style>
<g>
	<g>
		<polygon class="st0" points="13.6,18.3 12.1,18.3 12.1,19 14.4,19 14.4,16.8 13.6,16.8 		"/>
		<polygon class="st0" points="13.6,13.1 14.4,13.1 14.4,10.8 12.1,10.8 12.1,11.6 13.6,11.6 		"/>
		<polygon class="st0" points="3.6,11.6 5.1,11.6 5.1,10.8 2.8,10.8 2.8,13.1 3.6,13.1 		"/>
		<polygon class="st0" points="5.1,18.3 3.6,18.3 3.6,16.8 2.8,16.8 2.8,19 5.1,19 		"/>
		<rect x="4.7" y="12.5" class="st0" width="7.8" height="0.8"/>
		<rect x="4.7" y="14.5" class="st0" width="7.8" height="0.8"/>
		<rect x="4.7" y="16.5" class="st0" width="7.8" height="0.8"/>
		<path class="st0" d="M22.9,10.4c0-4-3.2-7.2-7.2-7.2c-3.5,0-6.5,2.5-7.1,5.9H1.1v11.9h15.1v-3.3C19.9,17.4,22.9,14.2,22.9,10.4z
			 M15.7,3.9c2.2,0,4.1,1.1,5.3,2.7c-0.6,0.8-2.2,0.4-3.1,0.5c-0.4,0.1-0.9,0.4-1,0.8c-0.2,0.5,0.5,0.6,0.3,1.1
			c-0.2,0.4-0.6,0.4-0.9,0.7V9h-0.6c0.4-0.2,0.7-0.5,0.9-0.9c0.1-0.3,0.2-0.6,0.3-0.9c0.2-0.4,0.5-0.7,0.8-1c0-0.1,0-0.1-0.1-0.2
			c-1.1-0.1-1.5,1.1-2.1,1.7C15.1,8,14.8,8,14.4,8c-0.2,0-0.1-0.1,0-0.3c0.2-0.4-0.6-0.6-1-0.7c0.2-0.3,0.7-0.5,1-0.7
			c0.1-0.1,0.4-0.3,0.3-0.5c-0.2-0.3-0.8-0.4-1.2-0.3c-0.7,0.1-1.4,0.5-2,0.1C12.6,4.5,14.1,3.9,15.7,3.9z M12.8,8.7
			c0.2,0,0.5,0.1,0.8,0.3h-1C12.6,8.9,12.6,8.8,12.8,8.7z M15.1,19.8H2.2v-9.6h12.9L15.1,19.8L15.1,19.8z M17.2,16.6
			c-0.1-0.2-0.2-0.4,0.1-0.6c0.2-0.1,0.5-0.2,0.7-0.3c0.4-0.2,0.6-0.9,0.3-1.2C17.9,14,17.2,14,16.7,14c-0.2,0-0.3,0-0.5,0v-2.9
			c0,0,0,0,0,0c0.6,0.6,1.7,0.6,2.5,0.8c-0.3,0.7-0.2,1.5,0.6,1.7c0.7,0.2,1.5-0.1,2.1-0.4C20.7,14.9,19.1,16.2,17.2,16.6z"/>
	</g>
</g>
</svg>
