<?xml version="1.0" encoding="utf-8"?>
<!-- Generator: Adobe Illustrator 28.0.0, SVG Export Plug-In . SVG Version: 6.00 Build 0)  -->
<svg version="1.1" id="a" xmlns="http://www.w3.org/2000/svg" xmlns:xlink="http://www.w3.org/1999/xlink" x="0px" y="0px"
	 viewBox="0 0 24 24" style="enable-background:new 0 0 24 24;" xml:space="preserve">
<style type="text/css">
	.st0{fill:#465577;}
</style>
<g>
	<polygon class="st0" points="13.2,6.8 7.6,1.3 2,6.8 4.4,6.8 4.4,14.4 10.8,14.4 10.8,6.8 	"/>
	<path class="st0" d="M16.8,18.1v-3.9c-1.2-0.3-2.1-0.9-2.7-1.6c-0.6-0.7-0.8-1.5-0.8-2.5c0-1,0.3-1.9,1-2.5
		c0.6-0.7,1.5-1.1,2.5-1.2V5.5h1.3v0.9c1,0.1,1.8,0.5,2.3,1c0.6,0.6,0.9,1.3,1.1,2.2L19.3,10c-0.1-0.7-0.5-1.2-1.1-1.5v3.6
		c1.5,0.4,2.5,0.9,3,1.6c0.5,0.6,0.8,1.5,0.8,2.4c0,1.1-0.3,2.1-1,2.8c-0.7,0.8-1.6,1.2-2.8,1.4V22h-1.3v-1.7
		c-1.1-0.1-1.9-0.5-2.6-1.2c-0.7-0.7-1.1-1.6-1.3-2.8l2.4-0.3c0.1,0.5,0.3,0.9,0.6,1.3C16.2,17.7,16.5,18,16.8,18.1z M16.8,8.5
		c-0.4,0.1-0.7,0.3-0.9,0.6c-0.2,0.3-0.3,0.6-0.3,1c0,0.3,0.1,0.6,0.3,0.9c0.2,0.3,0.5,0.5,0.9,0.7L16.8,8.5L16.8,8.5z M18.2,18.3
		c0.5-0.1,0.8-0.3,1.1-0.6c0.3-0.3,0.4-0.7,0.4-1.2c0-0.4-0.1-0.8-0.4-1.1c-0.2-0.3-0.6-0.5-1.2-0.7V18.3z"/>
	<g>
		<rect x="4.4" y="15.1" class="st0" width="1.3" height="5.1"/>
	</g>
	<g>
		<rect x="9.5" y="15.1" class="st0" width="1.3" height="4"/>
	</g>
	<g>
		<rect x="6.9" y="15.1" class="st0" width="1.3" height="7.6"/>
	</g>
</g>
</svg>
