<?xml version="1.0" encoding="utf-8"?>
<!-- Generator: Adobe Illustrator 28.0.0, SVG Export Plug-In . SVG Version: 6.00 Build 0)  -->
<svg version="1.1" id="Layer_1" xmlns="http://www.w3.org/2000/svg" xmlns:xlink="http://www.w3.org/1999/xlink" x="0px" y="0px"
	 viewBox="0 0 508 508" style="enable-background:new 0 0 508 508;" xml:space="preserve">
<style type="text/css">
	.st0{fill:#465577;}
	.st1{fill:#2C9984;}
	.st2{fill:#4CDBC4;}
	.st3{fill:#FFFFFF;}
	.st4{fill:#F8A541;}
	.st5{fill:#E6E9EE;}
	.st6{fill:#CED5E0;}
</style>
<circle class="st0" cx="254" cy="254" r="254"/>
<g>
	<rect x="266.2" y="143.3" class="st1" width="46.3" height="61.1"/>
	<rect x="195.4" y="127.2" class="st1" width="46.3" height="77.2"/>
</g>
<g>
	<rect x="266.2" y="143.3" class="st2" width="46.3" height="14.9"/>
	<rect x="195.4" y="127.2" class="st2" width="46.3" height="14.9"/>
</g>
<rect x="146.4" y="216.9" class="st3" width="215.3" height="124.9"/>
<g>
	<rect x="158.5" y="232.4" class="st4" width="19.8" height="19.8"/>
	<rect x="192.7" y="232.4" class="st4" width="19.8" height="19.8"/>
	<rect x="227" y="232.4" class="st4" width="19.8" height="19.8"/>
	<rect x="261.2" y="232.4" class="st4" width="19.8" height="19.8"/>
	<rect x="295.4" y="232.4" class="st4" width="19.8" height="19.8"/>
	<rect x="329.6" y="232.4" class="st4" width="19.8" height="19.8"/>
	<rect x="158.5" y="264.9" class="st4" width="19.8" height="19.8"/>
	<rect x="192.7" y="264.9" class="st4" width="19.8" height="19.8"/>
	<rect x="227" y="264.9" class="st4" width="19.8" height="19.8"/>
	<rect x="261.2" y="264.9" class="st4" width="19.8" height="19.8"/>
	<rect x="295.4" y="264.9" class="st4" width="19.8" height="19.8"/>
	<rect x="329.6" y="264.9" class="st4" width="19.8" height="19.8"/>
</g>
<rect x="146.4" y="216.9" class="st5" width="215.3" height="7"/>
<path class="st3" d="M373.4,216.9H134.6c-0.3,0-0.5-0.2-0.5-0.5v-24.2c0-0.3,0.2-0.5,0.5-0.5h238.9c0.3,0,0.5,0.2,0.5,0.5v24.2
	C373.9,216.7,373.7,216.9,373.4,216.9z"/>
<path class="st6" d="M254,508L254,508c40.5,0,78.8-9.5,112.8-26.4L407.6,340L254,258V508z"/>
<path class="st5" d="M141.2,481.6c34,16.9,72.2,26.4,112.8,26.4V257.9l-153.6,82L141.2,481.6z"/>
</svg>
