<?xml version="1.0" encoding="utf-8"?>
<!-- Generator: Adobe Illustrator 28.0.0, SVG Export Plug-In . SVG Version: 6.00 Build 0)  -->
<svg version="1.1" id="a" xmlns="http://www.w3.org/2000/svg" xmlns:xlink="http://www.w3.org/1999/xlink" x="0px" y="0px"
	 viewBox="0 0 24 24" style="enable-background:new 0 0 24 24;" xml:space="preserve">
<style type="text/css">
	.st0{fill:#465577;}
	.st1{fill:#FFFFFF;}
</style>
<g>
	<path class="st0" d="M13.2,2.5H2.6c-1,0-1.8,0.8-1.8,1.8v15.4c0,1,0.8,1.8,1.8,1.8h3.5v-3c0-1,0.8-1.8,1.8-1.8c1,0,1.8,0.8,1.8,1.8
		v3h3.6c1,0,1.8-0.8,1.8-1.8v-2.6c-0.8-0.5-1.3-1.4-1.3-2.4c0-1,0.5-1.9,1.3-2.4v-8C15,3.3,14.2,2.5,13.2,2.5z M5.5,12.6
		c0,0.3-0.3,0.6-0.6,0.6H3.8c-0.3,0-0.6-0.3-0.6-0.6v-1.2c0-0.3,0.3-0.6,0.6-0.6h1.2c0.3,0,0.6,0.3,0.6,0.6V12.6z M5.5,7.9
		c0,0.3-0.3,0.6-0.6,0.6H3.8c-0.3,0-0.6-0.3-0.6-0.6V6.7c0-0.3,0.3-0.6,0.6-0.6h1.2c0.3,0,0.6,0.3,0.6,0.6V7.9z M9.1,12.6
		c0,0.3-0.3,0.6-0.6,0.6H7.3c-0.3,0-0.6-0.3-0.6-0.6v-1.2c0-0.3,0.3-0.6,0.6-0.6h1.2c0.3,0,0.6,0.3,0.6,0.6V12.6z M9.1,7.9
		c0,0.3-0.3,0.6-0.6,0.6H7.3C7,8.5,6.7,8.2,6.7,7.9V6.7c0-0.3,0.3-0.6,0.6-0.6h1.2c0.3,0,0.6,0.3,0.6,0.6V7.9z M10.2,6.7
		c0-0.3,0.3-0.6,0.6-0.6H12c0.3,0,0.6,0.3,0.6,0.6v1.2c0,0.3-0.3,0.6-0.6,0.6h-1.2c-0.3,0-0.6-0.3-0.6-0.6V6.7z M10.8,13.2
		c-0.3,0-0.6-0.3-0.6-0.6v-1.2c0-0.3,0.3-0.6,0.6-0.6H12c0.3,0,0.6,0.3,0.6,0.6v1.2c0,0,0,0,0,0c0,0.2-0.1,0.3-0.2,0.4
		c-0.1,0.1-0.2,0.1-0.4,0.1H10.8z"/>
	<g>
		<path class="st1" d="M16.5,20.4c-3.1,0-5.6-2.5-5.6-5.6s2.5-5.6,5.6-5.6s5.6,2.5,5.6,5.6S19.6,20.4,16.5,20.4z M16.5,10.3
			c-2.4,0-4.4,2-4.4,4.4c0,2.4,2,4.4,4.4,4.4s4.4-2,4.4-4.4C20.9,12.3,19,10.3,16.5,10.3z"/>
	</g>
	<g>
		<path class="st0" d="M23,20.1l-2.8-2.8c0.5-0.7,0.8-1.6,0.8-2.6c0-2.4-2-4.4-4.5-4.4c-0.5,0-1.1,0.1-1.5,0.3c-1,0.4-1.8,1.1-2.4,2
			c0,0,0,0,0,0c-0.1,0.1-0.2,0.3-0.2,0.4c-0.2,0.5-0.3,1.1-0.3,1.7c0,1.9,1.2,3.6,2.9,4.2c0.5,0.2,1,0.3,1.5,0.3
			c0.9,0,1.8-0.3,2.5-0.8l2.8,2.8c0.3,0.3,0.8,0.3,1.2,0c0.2-0.2,0.2-0.4,0.2-0.6C23.2,20.4,23.1,20.2,23,20.1z M16.5,17.5
			c-0.6,0-1.1-0.2-1.5-0.5c-0.8-0.5-1.3-1.4-1.3-2.4c0-1,0.5-1.9,1.3-2.4c0.4-0.3,1-0.5,1.5-0.5c1.6,0,2.8,1.3,2.8,2.8
			C19.4,16.3,18.1,17.5,16.5,17.5z"/>
	</g>
</g>
</svg>
