<?xml version="1.0" encoding="utf-8"?>
<!-- Generator: Adobe Illustrator 28.0.0, SVG Export Plug-In . SVG Version: 6.00 Build 0)  -->
<svg version="1.1" id="a" xmlns="http://www.w3.org/2000/svg" xmlns:xlink="http://www.w3.org/1999/xlink" x="0px" y="0px"
	 viewBox="0 0 24 24" style="enable-background:new 0 0 24 24;" xml:space="preserve">
<style type="text/css">
	.st0{fill:#FFFFFF;}
</style>
<path class="st0" d="M8.7,3.6c-0.3-0.7-1-1-1.7-0.8L3.8,3.6C3.2,3.8,2.7,4.4,2.7,5c0,9,7.3,16.2,16.2,16.2c0.7,0,1.2-0.4,1.4-1.1
	l0.9-3.2c0.2-0.7-0.2-1.4-0.8-1.7l-3.5-1.5c-0.6-0.2-1.3-0.1-1.7,0.4l-1.5,1.8c-2.6-1.2-4.6-3.3-5.8-5.8l1.8-1.5
	c0.5-0.4,0.7-1.1,0.4-1.7L8.7,3.6L8.7,3.6z"/>
</svg>
