<?xml version="1.0" encoding="utf-8"?>
<!-- Generator: Adobe Illustrator 28.0.0, SVG Export Plug-In . SVG Version: 6.00 Build 0)  -->
<svg version="1.1" id="Слой_1" xmlns="http://www.w3.org/2000/svg" xmlns:xlink="http://www.w3.org/1999/xlink" x="0px" y="0px"
	 viewBox="0 0 800 800" style="enable-background:new 0 0 800 800;" xml:space="preserve">
<style type="text/css">
	.st0{fill:#12BADC;}
</style>
<path class="st0" d="M343.3,176.6l182.8,182.8c10.7,10.7,16.8,25.4,16.8,40.6c0,15.2-6.1,29.9-16.8,40.6L343.3,623.4
	c-9.5,9.5-22.3,14.7-35.7,14.7c-27.8,0-50.5-22.6-50.5-50.5v-92.4H66.6C40.3,495.2,19,474,19,447.6v-95.2
	c0-26.3,21.3-47.6,47.6-47.6h190.5v-92.4c0-27.8,22.6-50.5,50.5-50.5C321,161.9,333.8,167.2,343.3,176.6z M542.9,638.1h95.2
	c26.3,0,47.6-21.3,47.6-47.6v-381c0-26.3-21.3-47.6-47.6-47.6h-95.2c-26.3,0-47.6-21.3-47.6-47.6s21.3-47.6,47.6-47.6h95.2
	c78.9,0,142.9,64,142.9,142.9v381c0,78.9-64,142.9-142.9,142.9h-95.2c-26.3,0-47.6-21.3-47.6-47.6S516.5,638.1,542.9,638.1z"/>
</svg>
