<?xml version="1.0" encoding="utf-8"?>
<!-- Generator: Adobe Illustrator 28.0.0, SVG Export Plug-In . SVG Version: 6.00 Build 0)  -->
<svg version="1.1" id="a" xmlns="http://www.w3.org/2000/svg" xmlns:xlink="http://www.w3.org/1999/xlink" x="0px" y="0px"
	 viewBox="0 0 24 24" style="enable-background:new 0 0 24 24;" xml:space="preserve">
<style type="text/css">
	.st0{fill:#F8A541;}
</style>
<path class="st0" d="M17.5,4.2c0.6-0.6,0.6-1.5,0-2.1c-0.6-0.6-1.5-0.6-2.1,0L9,8.4L6.4,5.8c-0.6-0.6-1.5-0.6-2.1,0s-0.6,1.5,0,2.1
	L8,11.6c0.6,0.6,1.5,0.6,2.1,0C10.1,11.6,17.5,4.2,17.5,4.2z M21.9,10.1c0.6-0.6,0.6-1.5,0-2.1c-0.6-0.6-1.5-0.6-2.1,0L9,18.8
	l-4.9-4.9c-0.6-0.6-1.5-0.6-2.1,0s-0.6,1.5,0,2.1L8,21.9c0.6,0.6,1.5,0.6,2.1,0L21.9,10.1L21.9,10.1z"/>
</svg>
