<?xml version="1.0" encoding="utf-8"?>
<!-- Generator: Adobe Illustrator 28.0.0, SVG Export Plug-In . SVG Version: 6.00 Build 0)  -->
<svg version="1.1" id="a" xmlns="http://www.w3.org/2000/svg" xmlns:xlink="http://www.w3.org/1999/xlink" x="0px" y="0px"
	 viewBox="0 0 24 24" style="enable-background:new 0 0 24 24;" xml:space="preserve">
<style type="text/css">
	.st0{fill:#465577;}
</style>
<path class="st0" d="M18.4,10.1c0,1.8-0.6,3.5-1.6,4.9l5,5.1c0.5,0.5,0.5,1.3,0,1.8c-0.5,0.5-1.3,0.5-1.8,0l-5-5.1
	c-1.4,1-3.1,1.6-4.9,1.6c-4.6,0-8.3-3.7-8.3-8.3s3.7-8.3,8.3-8.3S18.4,5.5,18.4,10.1z M10.1,15.8c3.2,0,5.7-2.6,5.7-5.7
	s-2.6-5.7-5.7-5.7s-5.7,2.6-5.7,5.7S6.9,15.8,10.1,15.8z"/>
</svg>
