<?xml version="1.0" encoding="utf-8"?>
<!-- Generator: Adobe Illustrator 28.0.0, SVG Export Plug-In . SVG Version: 6.00 Build 0)  -->
<svg version="1.1" id="a" xmlns="http://www.w3.org/2000/svg" xmlns:xlink="http://www.w3.org/1999/xlink" x="0px" y="0px"
	 viewBox="0 0 24 24" style="enable-background:new 0 0 24 24;" xml:space="preserve">
<style type="text/css">
	.st0{fill:#E8A453;}
</style>
<path class="st0" d="M8.1,2.1c-0.3-0.8-1.2-1.2-2-1l-3.8,1C1.5,2.3,1,3,1,3.7C1,14.4,9.6,23,20.3,23c0.8,0,1.5-0.5,1.7-1.3l1-3.8
	c0.2-0.8-0.2-1.7-1-2l-4.1-1.7c-0.7-0.3-1.5-0.1-2,0.5l-1.7,2.1c-3-1.4-5.5-3.9-6.9-6.9l2.1-1.7c0.6-0.5,0.8-1.3,0.5-2L8.1,2.1
	L8.1,2.1z"/>
</svg>
