<?xml version="1.0" encoding="utf-8"?>
<!-- Generator: Adobe Illustrator 28.0.0, SVG Export Plug-In . SVG Version: 6.00 Build 0)  -->
<svg version="1.1" id="a" xmlns="http://www.w3.org/2000/svg" xmlns:xlink="http://www.w3.org/1999/xlink" x="0px" y="0px"
	 viewBox="0 0 24 24" style="enable-background:new 0 0 24 24;" xml:space="preserve">
<style type="text/css">
	.st0{fill:#E8A453;}
</style>
<path class="st0" d="M3.2,3.9c-1.1,0-2,0.9-2,2c0,0.6,0.3,1.2,0.8,1.6l9.2,6.9c0.5,0.4,1.1,0.4,1.6,0L22,7.5c0.5-0.4,0.8-1,0.8-1.6
	c0-1.1-0.9-2-2-2L3.2,3.9z M1.2,8.6v8.8c0,1.5,1.2,2.7,2.7,2.7h16.2c1.5,0,2.7-1.2,2.7-2.7V8.6l-9.2,6.9c-1,0.7-2.3,0.7-3.2,0
	L1.2,8.6z"/>
</svg>
