<?xml version="1.0" encoding="utf-8"?>
<!-- Generator: Adobe Illustrator 28.0.0, SVG Export Plug-In . SVG Version: 6.00 Build 0)  -->
<svg version="1.1" id="a" xmlns="http://www.w3.org/2000/svg" xmlns:xlink="http://www.w3.org/1999/xlink" x="0px" y="0px"
	 viewBox="0 0 24 24" style="enable-background:new 0 0 24 24;" xml:space="preserve">
<style type="text/css">
	.st0{fill:#E8A453;}
</style>
<path class="st0" d="M5.6,0.7c-1.2,0-2.1,1-2.1,2.1v18.4c0,1.2,1,2.1,2.1,2.1h4.2v-3.5c0-1.2,1-2.1,2.1-2.1s2.1,1,2.1,2.1v3.5h4.2
	c1.2,0,2.1-1,2.1-2.1V2.8c0-1.2-1-2.1-2.1-2.1H5.6z M6.3,11.3c0-0.4,0.3-0.7,0.7-0.7h1.4c0.4,0,0.7,0.3,0.7,0.7v1.4
	c0,0.4-0.3,0.7-0.7,0.7H7c-0.4,0-0.7-0.3-0.7-0.7V11.3z M11.3,10.6h1.4c0.4,0,0.7,0.3,0.7,0.7v1.4c0,0.4-0.3,0.7-0.7,0.7h-1.4
	c-0.4,0-0.7-0.3-0.7-0.7v-1.4C10.6,10.9,10.9,10.6,11.3,10.6z M14.8,11.3c0-0.4,0.3-0.7,0.7-0.7H17c0.4,0,0.7,0.3,0.7,0.7v1.4
	c0,0.4-0.3,0.7-0.7,0.7h-1.4c-0.4,0-0.7-0.3-0.7-0.7V11.3z M7,4.9h1.4c0.4,0,0.7,0.3,0.7,0.7V7c0,0.4-0.3,0.7-0.7,0.7H7
	C6.7,7.8,6.3,7.4,6.3,7V5.6C6.3,5.2,6.7,4.9,7,4.9z M10.6,5.6c0-0.4,0.3-0.7,0.7-0.7h1.4c0.4,0,0.7,0.3,0.7,0.7V7
	c0,0.4-0.3,0.7-0.7,0.7h-1.4c-0.4,0-0.7-0.3-0.7-0.7V5.6z M15.5,4.9H17c0.4,0,0.7,0.3,0.7,0.7V7c0,0.4-0.3,0.7-0.7,0.7h-1.4
	c-0.4,0-0.7-0.3-0.7-0.7V5.6C14.8,5.2,15.1,4.9,15.5,4.9z"/>
</svg>
