<?xml version="1.0" encoding="utf-8"?>
<!-- Generator: Adobe Illustrator 28.0.0, SVG Export Plug-In . SVG Version: 6.00 Build 0)  -->
<svg version="1.1" id="a" xmlns="http://www.w3.org/2000/svg" xmlns:xlink="http://www.w3.org/1999/xlink" x="0px" y="0px"
	 viewBox="0 0 24 24" style="enable-background:new 0 0 24 24;" xml:space="preserve">
<style type="text/css">
	.st0{fill:#465577;}
</style>
<path class="st0" d="M10.5,1.9c0.2,0.7-0.2,1.5-0.9,1.8c-3.5,1-6.1,4.3-6.1,8.1c0,4.7,3.8,8.5,8.5,8.5s8.5-3.8,8.5-8.5
	c0-3.8-2.6-7.1-6.1-8.1c-0.7-0.2-1.2-1-0.9-1.8s1-1.2,1.8-0.9c4.7,1.4,8.1,5.7,8.1,10.8c0,6.2-5.1,11.3-11.3,11.3S0.7,18,0.7,11.8
	C0.7,6.7,4.1,2.4,8.8,1C9.5,0.7,10.3,1.2,10.5,1.9z"/>
</svg>
