<?xml version="1.0" encoding="utf-8"?>
<!-- Generator: Adobe Illustrator 28.0.0, SVG Export Plug-In . SVG Version: 6.00 Build 0)  -->
<svg version="1.1" id="a" xmlns="http://www.w3.org/2000/svg" xmlns:xlink="http://www.w3.org/1999/xlink" x="0px" y="0px"
	 viewBox="0 0 24 24" style="enable-background:new 0 0 24 24;" xml:space="preserve">
<style type="text/css">
	.st0{fill:#465577;}
</style>
<path class="st0" d="M21.6,12.4c2.1-2.1,2.1-5.5,0-7.5c-1.8-1.8-4.8-2.1-6.9-0.6l-0.1,0C14.1,4.7,14,5.5,14.4,6s1.1,0.7,1.6,0.3
	l0.1,0c1.2-0.8,2.8-0.7,3.8,0.3c1.2,1.2,1.2,3,0,4.2l-4.1,4.1c-1.2,1.2-3,1.2-4.2,0c-1-1-1.2-2.6-0.3-3.8l0-0.1
	c0.4-0.5,0.3-1.3-0.3-1.6S9.7,9.1,9.4,9.6l0,0.1c-1.5,2.1-1.3,5,0.6,6.9c2.1,2.1,5.5,2.1,7.5,0L21.6,12.4z M2.4,11.6
	c-2.1,2.1-2.1,5.5,0,7.5c1.8,1.8,4.8,2.1,6.9,0.6l0.1,0c0.5-0.4,0.7-1.1,0.3-1.6c-0.4-0.5-1.1-0.7-1.6-0.3l-0.1,0
	c-1.2,0.8-2.8,0.7-3.8-0.3c-1.2-1.2-1.2-3,0-4.2l4.1-4.1c1.2-1.2,3-1.2,4.2,0c1,1,1.2,2.6,0.3,3.8l0,0.1c-0.4,0.5-0.3,1.3,0.3,1.6
	c0.5,0.4,1.3,0.3,1.6-0.3l0-0.1c1.5-2.1,1.3-5-0.6-6.9c-2.1-2.1-5.5-2.1-7.5,0L2.4,11.6z"/>
</svg>
