<?xml version="1.0" encoding="utf-8"?>
<!-- Generator: Adobe Illustrator 28.0.0, SVG Export Plug-In . SVG Version: 6.00 Build 0)  -->
<svg version="1.1" id="Слой_1" xmlns="http://www.w3.org/2000/svg" xmlns:xlink="http://www.w3.org/1999/xlink" x="0px" y="0px"
	 viewBox="0 0 802 254.4" style="enable-background:new 0 0 802 254.4;" xml:space="preserve">
<style type="text/css">
	.st0{fill-rule:evenodd;clip-rule:evenodd;fill:#FFFFFF;}
	.st1{fill:#F8A541;}
	.st2{fill:#39527A;}
	.st3{fill:#61B357;}
	.st4{fill-rule:evenodd;clip-rule:evenodd;fill:#242526;}
</style>
<path class="st0" d="M15.4,251.8h771.1c6.9,0,12.4-5.6,12.4-12.4v-225c0-6.9-5.6-12.4-12.4-12.4H15.4C8.5,2,3,7.6,3,14.4v225
	C3,246.3,8.5,251.8,15.4,251.8z"/>
<rect x="260.6" y="18.1" class="st1" width="522.6" height="87.6"/>
<rect x="260.6" y="125.2" class="st2" width="522.6" height="58.4"/>
<rect x="260.6" y="198.1" class="st3" width="522.6" height="38.9"/>
<path class="st0" d="M448.2,237.4h-60.9l-61.6-95.7h-50.9v95.7H22.6V18.5H399c20.2,11.9,28.9,31.7,28.9,54.6
	c0,29.2-16.3,54.6-49.5,64.3h1.4L448.2,237.4z"/>
<path id="Combined-Shape-2_00000006695972381380828960000016121514208243300755_" class="st4" d="M164,55.3V32
	c10.5-9,23.8-13.8,37.6-13.8c43.6,0,58.6,26.6,58.7,59.5H247c1-26.3-11.4-46.6-43.3-46.6C186.9,30.9,171.6,40.4,164,55.3z
	 M349.7,130L422.9,237h-20.1l-68.9-106.7h-62.6V19h71.6c46.7,0.7,65.4,24.3,65.4,54.8C408.3,102.6,389.1,126.9,349.7,130L349.7,130z
	 M88,135.8l49-116.9h17.6v215.5h-16.9V50.1L88,167.4L38.3,50.1v184.3H22.6V18.9h16.5L88,135.8z M339.7,30.8H286v87.7h53.7
	c34.7-0.5,54-20.5,54-44.5S376.6,31.3,339.7,30.8z M164,82.6c3,3.8,6.2,7.3,9.6,10.7c5.4,4.9,11.4,9,17.9,12.4
	c26,13.5,48.2,26.6,57,34.1c12.1,10.5,18.2,22.1,18.2,34.7c0.1,27.1-10.4,45.3-31.6,54.8c-15.5,7-36.8,7.2-55,1.6
	c-5.6-1.9-10.9-4.4-16-7.5v-16.5c6.5,4.8,11.4,8.1,14.8,9.6c7.5,3.3,15.6,5.3,23.8,5.7c30.8,0.8,49.2-19,49.2-40.5
	c0-8.4-1.4-17.9-8.2-25.9c-7.6-8.8-20.5-16.2-34.2-23.9c-8.2-4.6-16.2-9.8-24.8-14.4c-7.4-4.1-14.3-9-20.5-14.8L164,82.6L164,82.6z"
	/>
</svg>
