<?xml version="1.0" encoding="utf-8"?>
<!-- Generator: Adobe Illustrator 28.0.0, SVG Export Plug-In . SVG Version: 6.00 Build 0)  -->
<svg version="1.1" id="Слой_1" xmlns="http://www.w3.org/2000/svg" xmlns:xlink="http://www.w3.org/1999/xlink" x="0px" y="0px"
	 viewBox="0 0 802 254.4" style="enable-background:new 0 0 802 254.4;" xml:space="preserve">
<style type="text/css">
	.st0{fill:#FFFFFF;}
	.st1{fill-rule:evenodd;clip-rule:evenodd;fill:#FFFFFF;}
</style>
<g>
	<path class="st0" d="M779.5,18.6v86.7H420.4c5.5-9.8,8.6-21.1,8.6-33.1c0-21.9-10.4-41.4-26.3-53.6
		C402.7,18.6,779.5,18.6,779.5,18.6z"/>
	<path class="st0" d="M779.5,124.8v58.4H410L379,138c9.4-2.6,18-7.1,25.4-13.2H779.5z"/>
	<polygon class="st0" points="345.1,183.2 271.2,183.2 271.2,149.4 323.2,149.4 	"/>
	<polygon class="st0" points="379.7,236.6 271.2,236.6 271.2,202.7 357.7,202.7 	"/>
	<polygon class="st0" points="779.5,202.7 779.5,236.6 446.5,236.6 423.3,202.7 	"/>
	<path id="Combined-Shape-2_00000006695972381380828960000016121514208243300755_" class="st1" d="M163.9,54.9V31.6
		c10.5-9,23.8-13.8,37.6-13.8c43.6,0,58.6,26.6,58.7,59.5h-13.3c1-26.3-11.4-46.6-43.3-46.6C186.8,30.5,171.5,40,163.9,54.9z
		 M349.6,129.6l73.2,107h-20.1l-68.9-106.7h-62.6V18.6h71.6c46.7,0.7,65.4,24.3,65.4,54.8C408.2,102.2,389,126.5,349.6,129.6
		L349.6,129.6z M87.9,135.4l49-116.9h17.6V234h-16.9V49.7L87.9,167L38.2,49.7V234H22.5V18.5H39L87.9,135.4z M339.6,30.4h-53.7v87.7
		h53.7c34.7-0.5,54-20.5,54-44.5S376.5,30.9,339.6,30.4z M163.9,82.2c3,3.8,6.2,7.3,9.6,10.7c5.4,4.9,11.4,9,17.9,12.4
		c26,13.5,48.2,26.6,57,34.1c12.1,10.5,18.2,22.1,18.2,34.7c0.1,27.1-10.4,45.3-31.6,54.8c-15.5,7-36.8,7.2-55,1.6
		c-5.6-1.9-10.9-4.4-16-7.5v-16.5c6.5,4.8,11.4,8.1,14.8,9.6c7.5,3.3,15.6,5.3,23.8,5.7c30.8,0.8,49.2-19,49.2-40.5
		c0-8.4-1.4-17.9-8.2-25.9c-7.6-8.8-20.5-16.2-34.2-23.9c-8.2-4.6-16.2-9.8-24.8-14.4c-7.4-4.1-14.3-9-20.5-14.8L163.9,82.2
		L163.9,82.2z"/>
</g>
</svg>
