<?xml version="1.0" encoding="UTF-8"?>
<svg id="_Слой_1" data-name=" Слой 1" xmlns="http://www.w3.org/2000/svg" xmlns:xlink="http://www.w3.org/1999/xlink" viewBox="0 0 130 130">
  <defs>
    <style>
      .cls-1 {
        fill: #ddd8ca;
      }

      .cls-1, .cls-2, .cls-3, .cls-4 {
        stroke-width: 0px;
      }

      .cls-2 {
        fill: #fff;
      }

      .cls-5 {
        mask: url(#mask);
      }

      .cls-6 {
        opacity: .54;
      }

      .cls-3 {
        fill: #efead7;
        filter: url(#drop-shadow-1);
      }

      .cls-4 {
        fill: #e5e0cf;
      }
    </style>
    <filter id="drop-shadow-1">
      <feOffset dx="0" dy="0"/>
      <feGaussianBlur result="blur" stdDeviation="10"/>
      <feFlood flood-color="#fff206" flood-opacity="1"/>
      <feComposite in2="blur" operator="in"/>
      <feComposite in="SourceGraphic"/>
    </filter>
    <mask id="mask" x="13" y="13" width="104" height="104" maskUnits="userSpaceOnUse">
      <g id="mask0_7_7" data-name="mask0 7 7">
        <path class="cls-2" d="m65,117c28.72,0,52-23.28,52-52S93.72,13,65,13,13,36.28,13,65s23.28,52,52,52Z"/>
      </g>
    </mask>
  </defs>
  <circle class="cls-2" cx="65" cy="65" r="52"/>
  <path class="cls-3" d="m65,117c28.72,0,52-23.28,52-52S93.72,13,65,13,13,36.28,13,65s23.28,52,52,52Z"/>
  <g class="cls-6">
    <path class="cls-4" d="m65,13c-3.3,0-6.54.31-9.67.9,24.1,4.53,42.33,25.68,42.33,51.1s-18.23,46.57-42.33,51.1c3.13.59,6.37.9,9.67.9,28.72,0,52-23.28,52-52S93.72,13,65,13Z"/>
  </g>
  <g class="cls-5">
    <g>
      <path class="cls-1" d="m51.7,39.87c-.41,0-.8.05-1.19.14,2.29.54,3.99,2.58,3.99,5.03s-1.7,4.49-3.99,5.03c.38.09.78.14,1.19.14,2.86,0,5.17-2.32,5.17-5.17s-2.32-5.18-5.17-5.18Z"/>
      <path class="cls-4" d="m54.5,45.05c0-2.45-1.7-4.49-3.99-5.03-2.28.54-3.99,2.58-3.99,5.03s1.7,4.49,3.99,5.03c2.29-.54,3.99-2.58,3.99-5.03Z"/>
      <path class="cls-1" d="m51.08,100.57c-.27,0-.54.03-.79.1,1.53.36,2.66,1.73,2.66,3.36s-1.14,3-2.66,3.36c.26.06.52.1.79.1,1.91,0,3.46-1.55,3.46-3.46s-1.55-3.46-3.46-3.46Z"/>
      <path class="cls-4" d="m52.95,104.02c0-1.64-1.14-3-2.66-3.36-1.53.36-2.66,1.72-2.66,3.36s1.14,3,2.66,3.36c1.53-.36,2.66-1.72,2.66-3.36Z"/>
      <path class="cls-1" d="m42.52,81.07c-.57,0-1.13.07-1.66.2,3.21.75,5.6,3.63,5.6,7.06s-2.39,6.31-5.6,7.06c.54.13,1.09.2,1.66.2,4.01,0,7.26-3.25,7.26-7.26s-3.25-7.26-7.26-7.26Z"/>
      <path class="cls-4" d="m46.45,88.33c0-3.44-2.39-6.31-5.6-7.06-3.21.75-5.6,3.63-5.6,7.06s2.39,6.31,5.6,7.06c3.21-.75,5.6-3.63,5.6-7.06Z"/>
      <path class="cls-1" d="m32.06,42.38c-.88,0-1.72.11-2.54.3,4.89,1.15,8.53,5.53,8.53,10.76s-3.64,9.61-8.53,10.76c.82.19,1.66.3,2.54.3,6.11,0,11.07-4.95,11.07-11.07s-4.95-11.07-11.07-11.07Z"/>
      <path class="cls-4" d="m38.05,53.45c0-5.24-3.64-9.61-8.53-10.76-4.89,1.15-8.53,5.53-8.53,10.76s3.64,9.61,8.53,10.76c4.89-1.15,8.53-5.53,8.53-10.76Z"/>
      <path class="cls-1" d="m84.29,76.63c-1.08,0-2.13.14-3.14.38,6.04,1.42,10.55,6.83,10.55,13.31s-4.5,11.89-10.55,13.31c1.01.24,2.06.38,3.14.38,7.56,0,13.69-6.13,13.69-13.69s-6.13-13.69-13.69-13.69Z"/>
      <path class="cls-4" d="m91.7,90.31c0-6.48-4.5-11.89-10.55-13.31-6.04,1.42-10.55,6.83-10.55,13.31s4.5,11.89,10.55,13.31c6.04-1.42,10.55-6.83,10.55-13.31Z"/>
      <path class="cls-1" d="m89.79,53.92c-.68,0-1.34.09-1.98.24,3.8.89,6.64,4.3,6.64,8.38s-2.83,7.48-6.64,8.38c.64.15,1.29.24,1.98.24,4.76,0,8.61-3.86,8.61-8.61s-3.86-8.61-8.61-8.61Z"/>
      <path class="cls-4" d="m94.45,62.54c0-4.08-2.84-7.48-6.64-8.38-3.8.89-6.64,4.3-6.64,8.38s2.84,7.48,6.64,8.38c3.8-.89,6.64-4.3,6.64-8.38Z"/>
      <path class="cls-1" d="m105.46,67.91c-.44,0-.86.06-1.27.15,2.44.57,4.25,2.75,4.25,5.37s-1.82,4.79-4.25,5.37c.41.1.83.15,1.27.15,3.05,0,5.52-2.47,5.52-5.52,0-3.05-2.47-5.52-5.52-5.52Z"/>
      <path class="cls-4" d="m108.45,73.43c0-2.61-1.82-4.79-4.25-5.37-2.44.57-4.25,2.76-4.25,5.37s1.82,4.79,4.25,5.37c2.44-.57,4.25-2.75,4.25-5.37Z"/>
      <path class="cls-1" d="m103.16,44.84c-.42,0-.82.05-1.21.15,2.33.55,4.07,2.64,4.07,5.14s-1.74,4.59-4.07,5.14c.39.09.79.15,1.21.15,2.92,0,5.28-2.36,5.28-5.28s-2.36-5.28-5.28-5.28Z"/>
      <path class="cls-4" d="m106.02,50.13c0-2.5-1.74-4.59-4.07-5.14-2.33.55-4.07,2.64-4.07,5.14s1.74,4.59,4.07,5.14c2.33-.55,4.07-2.64,4.07-5.14Z"/>
      <path class="cls-1" d="m46.8,23.15c-.53,0-1.03.07-1.53.18,2.94.69,5.13,3.32,5.13,6.47s-2.19,5.78-5.13,6.47c.49.12,1,.18,1.53.18,3.68,0,6.65-2.98,6.65-6.66s-2.98-6.66-6.65-6.66Z"/>
      <path class="cls-4" d="m50.4,29.8c0-3.15-2.19-5.78-5.13-6.47-2.94.69-5.13,3.32-5.13,6.47s2.19,5.78,5.13,6.47c2.94-.69,5.13-3.32,5.13-6.47Z"/>
    </g>
  </g>
</svg>