<?xml version="1.0" encoding="utf-8"?>
<!-- Generator: Adobe Illustrator 28.0.0, SVG Export Plug-In . SVG Version: 6.00 Build 0)  -->
<svg version="1.1" id="_Слой_1" xmlns="http://www.w3.org/2000/svg" xmlns:xlink="http://www.w3.org/1999/xlink" x="0px"
	 y="0px" viewBox="0 0 130 130" style="enable-background:new 0 0 130 130;" xml:space="preserve">
<style type="text/css">
	.st0{fill:#FFFFFF;}
</style>
<path class="st0" d="M107.9,57c-0.2-1.2-1.2-2.1-2.5-2.1c-1.2,0-2.3,0.8-2.5,2c-2.6,11.3-12.5,19.2-24.2,19.2
	C65,76.1,53.9,65,53.9,51.3c0-11.6,7.9-21.6,19.2-24.2c1.2-0.3,2-1.3,2-2.5c0-1.2-0.9-2.2-2.1-2.5c-2.6-0.5-5.3-0.7-8-0.7
	c-11.6,0-22.6,4.5-30.8,12.8C25.9,42.4,21.4,53.4,21.4,65s4.5,22.6,12.8,30.8c8.2,8.2,19.2,12.8,30.8,12.8s22.6-4.5,30.8-12.8
	c8.2-8.2,12.8-19.2,12.8-30.8C108.6,62.3,108.3,59.6,107.9,57L107.9,57z"/>
</svg>
