<?xml version="1.0" encoding="utf-8"?>
<!-- Generator: Adobe Illustrator 28.0.0, SVG Export Plug-In . SVG Version: 6.00 Build 0)  -->
<svg version="1.1" id="_Слой_1" xmlns="http://www.w3.org/2000/svg" xmlns:xlink="http://www.w3.org/1999/xlink" x="0px"
	 y="0px" viewBox="0 0 375 130" style="enable-background:new 0 0 375 130;" xml:space="preserve">
<style type="text/css">
	.st0{clip-path:url(#SVGID_00000111871177184210100010000008467704479823845560_);}
	.st1{fill:url(#SVGID_00000004509760848942633190000016330205403438352776_);}
	.st2{fill:url(#SVGID_00000129200661243866290640000017717831540709521550_);}
	.st3{fill:#C7C7C7;}
</style>
<g>
	<defs>
		<path id="SVGID_1_" d="M65.1-0.1h244.8C345.8-0.1,375,29,375,65l0,0c0,36-29.2,65.1-65.1,65.1H65.1C29.2,130.1,0,101,0,65l0,0
			C0,29,29.2-0.1,65.1-0.1z"/>
	</defs>
	<clipPath id="SVGID_00000061467530984362520560000005819581800715331232_">
		<use xlink:href="#SVGID_1_"  style="overflow:visible;"/>
	</clipPath>
	<g style="clip-path:url(#SVGID_00000061467530984362520560000005819581800715331232_);">
		<g>
			
				<linearGradient id="SVGID_00000145020689941996497560000014031964256530543250_" gradientUnits="userSpaceOnUse" x1="-219.0415" y1="505.0664" x2="107.4691" y2="365.1461" gradientTransform="matrix(1 0 0 1 262.01 -378.25)">
				<stop  offset="0" style="stop-color:#041326"/>
				<stop  offset="1" style="stop-color:#0E314C"/>
			</linearGradient>
			<path style="fill:url(#SVGID_00000145020689941996497560000014031964256530543250_);" d="M65-0.1h245c35.9,0,65,29.1,65,65l0,0
				c0,35.9-29.1,65-65,65H65c-35.9,0-65-29.1-65-65l0,0C0,29,29.1-0.1,65-0.1z"/>
			
				<linearGradient id="SVGID_00000121246658497113281860000016548371629440596096_" gradientUnits="userSpaceOnUse" x1="-236.01" y1="453.13" x2="-236.01" y2="655.13" gradientTransform="matrix(1 0 0 1 262.01 -378.25)">
				<stop  offset="0" style="stop-color:#0C2F45"/>
				<stop  offset="1" style="stop-color:#151F25"/>
			</linearGradient>
			<ellipse style="fill:url(#SVGID_00000121246658497113281860000016548371629440596096_);" cx="26" cy="175.9" rx="136" ry="101"/>
			<circle class="st3" cx="79.5" cy="27.4" r="1.5"/>
			<circle class="st3" cx="146.5" cy="29.4" r="1.5"/>
			<circle class="st3" cx="244.5" cy="107.4" r="1.5"/>
			<circle class="st3" cx="232.5" cy="20.4" r="1.5"/>
			<circle class="st3" cx="219.5" cy="48.4" r="1.5"/>
			<circle class="st3" cx="174.5" cy="74.4" r="1.5"/>
			<circle class="st3" cx="163.5" cy="109.4" r="1.5"/>
			<circle class="st3" cx="87.5" cy="61.4" r="1.5"/>
			<circle class="st3" cx="40.5" cy="42.4" r="1.5"/>
		</g>
	</g>
</g>
</svg>
