<?xml version="1.0" encoding="utf-8"?>
<!-- Generator: Adobe Illustrator 28.0.0, SVG Export Plug-In . SVG Version: 6.00 Build 0)  -->
<svg version="1.1" id="_Слой_1" xmlns="http://www.w3.org/2000/svg" xmlns:xlink="http://www.w3.org/1999/xlink" x="0px"
	 y="0px" viewBox="0 0 130 130" style="enable-background:new 0 0 130 130;" xml:space="preserve">
<path d="M65.5,95.6c-1.6,0-2.9,1.3-2.9,2.9v8.7c0,1.6,1.3,2.9,2.9,2.9c1.6,0,2.9-1.3,2.9-2.9v-8.7C68.4,96.9,67.1,95.6,65.5,95.6z"
	/>
<path d="M65.5,35.4c1.6,0,2.9-1.3,2.9-2.9v-8.7c0-1.6-1.3-2.9-2.9-2.9c-1.6,0-2.9,1.3-2.9,2.9v8.7C62.6,34.1,63.9,35.4,65.5,35.4z"
	/>
<path d="M40.2,86.8l-6.1,6.1c-1.1,1.1-1.1,2.9,0,4.1c0.6,0.6,1.3,0.8,2,0.8c0.7,0,1.5-0.3,2-0.8l6.1-6.1c1.1-1.1,1.1-2.9,0-4.1
	C43.1,85.6,41.3,85.6,40.2,86.8z"/>
<path d="M88.8,45.1c0.7,0,1.5-0.3,2-0.8l6.1-6.1c1.1-1.1,1.1-2.9,0-4.1c-1.1-1.1-2.9-1.1-4.1,0l-6.1,6.1c-1.1,1.1-1.1,2.9,0,4.1
	C87.3,44.8,88.1,45.1,88.8,45.1z"/>
<path d="M35.4,65.5c0-1.6-1.3-2.9-2.9-2.9h-8.7c-1.6,0-2.9,1.3-2.9,2.9s1.3,2.9,2.9,2.9h8.7C34.1,68.4,35.4,67.1,35.4,65.5z"/>
<path d="M107.1,62.6h-8.7c-1.6,0-2.9,1.3-2.9,2.9s1.3,2.9,2.9,2.9h8.7c1.6,0,2.9-1.3,2.9-2.9S108.7,62.6,107.1,62.6z"/>
<path d="M40.2,44.2c0.6,0.6,1.3,0.8,2,0.8c0.7,0,1.5-0.3,2-0.8c1.1-1.1,1.1-2.9,0-4.1l-6.1-6.1c-1.1-1.1-2.9-1.1-4.1,0
	c-1.1,1.1-1.1,2.9,0,4.1L40.2,44.2z"/>
<path d="M90.8,86.8c-1.1-1.1-2.9-1.1-4.1,0c-1.1,1.1-1.1,2.9,0,4.1l6.1,6.1c0.6,0.6,1.3,0.8,2,0.8c0.7,0,1.5-0.3,2-0.8
	c1.1-1.1,1.1-2.9,0-4.1L90.8,86.8z"/>
<path d="M65.5,39.7c-14.2,0-25.8,11.6-25.8,25.8s11.6,25.8,25.8,25.8s25.8-11.6,25.8-25.8S79.7,39.7,65.5,39.7z M65.5,85.6
	c-11.1,0-20.1-9-20.1-20.1s9-20.1,20.1-20.1c11.1,0,20.1,9,20.1,20.1S76.6,85.6,65.5,85.6z"/>
</svg>
