<?xml version="1.0" encoding="UTF-8"?>
<svg id="_Слой_1" data-name=" Слой 1" xmlns="http://www.w3.org/2000/svg" xmlns:xlink="http://www.w3.org/1999/xlink" viewBox="0 0 375 130">
  <defs>
    <style>
      .cls-1 {
        opacity: .5;
      }

      .cls-2 {
        fill: url(#_Безымянный_градиент);
      }

      .cls-2, .cls-3, .cls-4, .cls-5, .cls-6, .cls-7, .cls-8 {
        stroke-width: 0px;
      }

      .cls-3 {
        fill: #e9f4f6;
      }

      .cls-4 {
        fill: none;
      }

      .cls-5 {
        fill: #c7c7c7;
      }

      .cls-6 {
        fill: #fff;
      }

      .cls-9 {
        opacity: .75;
      }

      .cls-7 {
        fill: #f2f7f8;
      }

      .cls-10 {
        clip-path: url(#clippath);
      }

      .cls-8 {
        fill: #ceeaf0;
      }
    </style>
    <clipPath id="clippath">
      <path class="cls-4" d="m65,0h245c35.9,0,65,29.1,65,65h0c0,35.9-29.1,65-65,65H65C29.1,130,0,100.9,0,65h0C0,29.1,29.1,0,65,0Z"/>
    </clipPath>
    <linearGradient id="_Безымянный_градиент" data-name="Безымянный градиент" x1="-219.04" y1="505.19" x2="107.47" y2="365.27" gradientTransform="translate(262.01 -378.25)" gradientUnits="userSpaceOnUse">
      <stop offset="0" stop-color="#77c2d0"/>
      <stop offset="1" stop-color="#3d91a7"/>
    </linearGradient>
  </defs>
  <g class="cls-10">
    <g>
      <path class="cls-2" d="m65,0h245c35.9,0,65,29.1,65,65h0c0,35.9-29.1,65-65,65H65C29.1,130,0,100.9,0,65h0C0,29.1,29.1,0,65,0Z"/>
      <g class="cls-9">
        <path class="cls-7" d="m336.33,48.51c-.27-.81-.99-2.52-2.71-3.85-.22-.17-2.88-2.16-5.73-1.62-2.19.41-2.98.64-2.98.64-.89.27-1.52.5-1.83.21-.3-.29-.07-.9,0-1.39.24-1.69-1.36-3.24-2.26-4.12-2.64-2.56-6.66-2.48-8.36-2.43-5.52.15-9.02,3.24-9.4,3.59-1.61,1.47-1.16,2.12-2.72,2.84-2.4,1.1-4.41,0-7.43,1.28-.67.29-2.09,1.01-2.53,2.03-.33.76-.07,1.38.15,1.88.2.46.35.83.02,1.15-.41.39-1.2.38-2.29.35-.63,0-1.34-.03-2.15.03-3.23.24-4.79,3.71-8.06,3.53-.59-.03-1.05-.18-1.29-.27-1.15,3.02-.75,4.85-.25,5.93,3.74,8,27.86,5.23,38.25,4.03,4.05-.46,6.19-.93,10.57-1.01,6.03-.11,8.59-.22,13.71-.44,2.95-.13,4.14-.21,5.13-1.17,2.28-2.22,1.89-7.58-.91-10.09-1.55-1.39-3.52-1.62-3.65-1.64-1.51-.16-2.7.27-3.26.51l-.02.03Z"/>
        <path class="cls-6" d="m330.67,51.81c1.48-.1,4.36-.31,5.46-2.42,1.08-2.09-.27-4.69-1.47-6.01-2.44-2.69-6.19-2.15-6.76-2.07-2.53.4-4.13,1.9-4.7,2.48.02-1-.08-2.67-.9-4.47-1.59-3.5-4.72-4.93-5.69-5.36-4.42-1.94-8.54-.44-9.74.07-1.19.5-3.48,1.5-5.03,3.99-1.05,1.68-1.32,3.33-1.4,4.27-.67-.36-2.65-1.29-5.08-.8-2.75.56-4.99,2.73-5.9,5.61-1.39-.31-4.12-.69-7.14.42-.95.35-3.02,1.14-4.57,3.16-1.03,1.34-1.91,3.34-1.38,3.82.44.39,1.47-.6,3.68-1.55,1.37-.59,5.25-2.24,8.87-1.04,1.73.57,1.58,1.19,3.24,1.58,2.97.69,5.6-.79,6.25-1.16,3.25-1.83,4.42-4.95,4.73-5.86.68.47,1.67,1.07,2.94,1.6,4.2,1.74,7.97,1.19,9.15.98,2.91-.53,5.07-1.75,6.34-2.61.36.8,1.13,2.25,2.68,3.46,2.5,1.97,5.28,1.98,6.4,1.9h.02Z"/>
        <path class="cls-8" d="m301.2,56.64c.94.67,2.04,1.3,3.32,1.81,6.28,2.48,12.38.09,14.45-.83,1.53.69,3.8,1.42,6.34.92,1.3-.26,1.48-.6,2.88-.85,2.7-.49,6.7.63,6.7.63,5.38,1.6,9.46-.14,9.67.75.2.87-3.59,2.91-7.42,3.71-4.99,1.04-9.46.3-12.62-.62-3.47,2.12-6.57,3.12-8.68,3.63-4.55,1.1-6.29.35-7.12-.2-.62-.41-.54-.56-1.16-.91-1.91-1.08-3.98-.33-6.83.31,0,0-2.84.63-5.73.92-2.6.26-6.79.68-11.03-1.31-1.21-.57-3.03-1.62-4.88-3.6.88-1.05,2.4-2.52,4.6-3.06,4.22-1.04,7.1,2.88,11.7,1.63,2.74-.75,4.71-2.07,5.82-2.94h-.01Z"/>
      </g>
      <g class="cls-1">
        <path class="cls-7" d="m191.82,20.46c2.66-1.68,5.36-3.2,8.16-4.54-2.11-.55-3.83-.46-4.02-.44-.4.03-5.65.47-8.64,4.48-1.36,1.82-1.87,3.88-2.33,5.11,2.39-1.16,4.58-3.19,6.83-4.61Z"/>
        <path class="cls-7" d="m235.07,34.92c-1.2-.95-2.47-1.18-3.01-1.26-3.06-.5-4.64,1.44-5.89.58-.93-.64-.17-1.8-1.11-3.9-.1-.23-1.34-2.91-4.19-3.98-2.37-.89-4.57-.2-5.46.07-3.36,1.05-4.38,3.32-5.55,2.81-1.04-.45-.51-2.32-1.57-5.38-.22-.63-1.11-3.04-2.99-4.96-1.15-1.17-2.46-1.94-3.73-2.45-5,2.25-9.7,5.11-14.11,8.39-4.88,3.63-10.63,1.54-16.27,2.08-3.89.37-7.19,2.39-10.23,4.71-1.4,1.07-2.12,2.18-3.24,3.49-.28.33-.76.99-1.26,1.12-1.12.29-2.89-.57-4.28-1.29.32.98.92,1.48.77,1.66-.17.2-.98-.39-2.11-.79-1.36-.49-2.51-.46-3.23-.46-.55,0-2.8.06-5.01,1.4-.05.03-.12.07-.21.13-.44.28-4.39,2.88-4.37,6.97,0,2.38,1.36,4.64,3.09,5.86,1.99,1.41,3.15.5,7.1,2.08,2.35.94,2.08,1.31,4.24,2.12,3.18,1.19,5.94,1.19,7.56,1.18,2.03,0,4.38-.03,7.14-1.06,3.06-1.14,4.86-2.88,7.18-2.17.61.19.64.37,1.6.67.51.15,2.22.63,4.47.46,3.74-.28,4.61-2.03,7.15-2.28,2.93-.28,4.45,2.16,7.25,3.31,9.86,4.05,23.84,1.8,27.89-4.82.79-1.28.93-2.29,2.23-3.27,3.15-2.38,6.73.15,10.04-2.27.32-.23,2.24-1.68,2.41-4.01.2-2.69-2.07-4.55-2.29-4.72v-.02Z"/>
        <path class="cls-6" d="m235.15,45.93c-2.93,1.44-8.5-.78-9.76.27-.35.29-.63.63-.63.63-.54.7-.55,1.35-2.05,3-2.47,2.73-5.31,4.01-5.43,3.84-.17-.24,3.08-1.81,5.83-5.54,1.18-1.6,5.18-7.02,3.33-12.81-1.12-3.5-3.78-5.31-4.28-5.64-4.67-3.06-9.85-1.01-10.21-.86-2.09.87-3.43,2.21-4.13,3.02-.43-1.13-1.54-3.6-4.12-5.56-2.58-1.96-5.18-2.33-6.6-2.5-4.87-.61-8.66,1.36-9.75,1.95-3.11,1.67-3.59,3.19-5.19,4.15-.4.24-.9.46-1.52.62-.62.16-1.16.2-1.51.21-1.41-2.58-4.2-3.64-6.25-2.79-1.89.78-2.47,2.92-2.55,3.22-.54-.35-1.54-.87-2.85-.97-1.92-.15-3.33.7-4.17,1.2-3.39,2.02-4.62,5.71-4.96,6.91-.8-.47-1.93-.95-3.04-.62-1.37.4-1.58,1.68-2.62,1.77-1.3.11-1.85-1.85-3.48-2.86-1.18-.74-3.19-1.14-6.82.31,1.02-.6,2.88-1.5,5.22-1.52.73,0,1.89-.07,3.23.46.35.14.62.28.82.39-.1-.38-.22-.99-.13-1.73.04-.31.16-1.29.85-2.19,1.01-1.31,2.94-2.03,4.36-1.52,1.02.37,1.53,1.28,1.76,1.13s-.42-.97-.35-2.09c.1-1.61,1.6-2.66,1.81-2.8.39-.26,1.66-1.13,3.12-.66.92.29,1.45.97,1.65,1.26-.03-.62-.04-2.33,1.07-4.01.21-.32,1.75-2.56,4.63-2.88,2.19-.24,3.79.79,4.23,1.08,1.33.88,2,2.01,2.3,2.58.15-.32.57-1.09,1.45-1.54,1.49-.76,2.98.03,3.15.13,1.12.63,1.52,1.68,1.63,1.98.22-1.3.91-4.25,3.35-6.84,2.72-2.89,7.09-4.78,11.44-3.9,3.93.8,6.29,3.49,7.33,4.68,1.93,2.21,2.79,4.37,3,4.96.55,1.53.75,2.89.82,3.86,1.07-.82,3.1-2.13,5.96-2.57,1.21-.18,3.36-.49,5.82.49,2.6,1.03,4,2.89,4.61,3.72,1.37,1.86,1.88,3.71,2.08,4.76.77-.32,2.45-.88,4.46-.47,2.37.48,5.17,2.29,5.8,5.38.55,2.65-.58,5.84-2.72,6.89v.02Z"/>
        <path class="cls-8" d="m232.95,36.65c-2.52-1.44-5.35-.53-6.23-.24-2.72.88-2.6,2.15-4.7,2.45-2.43.35-2.98-1.29-5.46-.98-2.28.29-2.43,1.78-4.84,2.12-1.68.24-1.92-.43-4.93-.97-1.25-.22-3.99-.68-7.14-.1-1.26.24-3.16.75-5.3,1.98-.71,1.14-2.3,3.76-5.51,4.95-2.44.91-5.27,1.15-7.83.98-1.81-.12-9.46-1.1-10.27-4.04-2.42,1.93-4.94,3.92-8.01,4.59-1.52.34-4.78,1.01-8.11-.68-1.59-.81-2.65-1.88-3.27-2.64-.88.42-2.49,1.02-4.47.81-4.73-.5-7.04-5.15-7.21-5.52-.51.72-1.48,2.29-1.64,4.46-.04.57-.28,4.49,2.86,7.17,3.02,2.59,6.69,1.92,7.14,1.83,1.11.98,5.71,4.81,12.64,4.76,7.83-.05,12.72-5,13.59-5.91.39.4,3.02,3.01,7.12,2.79,3.91-.21,6.2-2.85,6.57-3.3,1.51.92,3.82,2.19,6.81,3.25,3.06,1.09,14.4,5.12,24.73-.5,1.85-1.01,4.69-2.88,7.44-6.32,3.88,1.33,7.69-.15,8.92-2.76.92-1.95.32-4.41-.65-5.99-.26-.43-.93-1.49-2.23-2.23l-.02.04Z"/>
        <path class="cls-6" d="m222.88,47.26c-.13.3-.5,1.09-2.26,2.66-1.34,1.19-2.95,2.63-5.48,3.62-1.29.51-6.84,2.68-9.87.22-1.44-1.17-1.58-2.8-3.02-2.97-1.29-.16-1.96,1.09-3.26.78-1.06-.25-1.75-1.34-2-2.14-.67-2.17,1.1-4.75,3.14-5.6.37-.15,1.09-.48,2.04-.36,1.15.15,1.89.85,2.15,1.12,0-.28.12-1.91,1.47-2.98,1.84-1.47,4.19-.46,4.3-.41.78.35,1.28.86,1.56,1.2.24-.52,1.17-2.35,3.24-3.17,2.56-1.02,5.65-.02,7.26,2.2,1.25,1.73,1.49,4.06.74,5.85v-.02Z"/>
        <path class="cls-8" d="m222.69,47.7c.05.05-1.27,1.98-3.18,3.56-4.66,3.88-12.17,5.47-14.69,2.83-.75-.79-.84-1.72-1.98-2.2-1.38-.58-2.43.26-3.86-.33-.94-.39-1.52-1.18-1.87-1.81.43.26,1.2.66,2.22.72,2.12.13,3.57-1.26,3.83-1.52,1.19.98,3.49,2.6,6.78,3.2,1.57.29,5.88.83,9.54-1.55,1.88-1.22,3.16-2.96,3.21-2.91h0Z"/>
      </g>
      <path class="cls-3" d="m146.06,106.29c1.99,2.62,5.96,3.56,9.68,2.1.43.8,1.12,1.94,2.17,3.13,6.03,6.87,17.14,7.95,25.38,5.47,2.08-.62,5.14-1.83,8.45-4.3,1.19.61,2.73,1.26,4.61,1.72,2.89.7,5.4.65,7.11.48,3.95,1.53,7.47,2.31,10.28,2.73,3.02.44,16.45,2.12,27.38-5.27,3.71-2.51,4.74-4.44,5.1-6.08.75-3.44-1.08-7.4-2.82-8.53-.6-.39-1.96-1.23-3.42-2.83-.23-.25-.45-.56-.68-.97-2.14-3.86,1.95-6.91.93-11.69-1.2-5.63-9.09-11.33-15.03-10.26-2.99.54-3.88,2.51-6.68,2.11-3.54-.5-3.83-3.92-7.1-4.46-3.87-.64-8.72,3.26-9.42,7.12-.37,2.04.37,4.3.07,4.36-.23.05-.37-1.26-1.37-2.21-1.31-1.24-3.7-1.47-5.58-.62-1.82.82-3.31,2.71-3.25,4.58.07,2.19,2.22,3.7,2.03,3.89s-2.06-1.83-4.68-3.17c-3.72-1.9-7.73-.77-8.3-.6-4.56,1.35-7.24,5.42-7.54,5.89-.97,1.52-1.07,2.36-2.07,2.74-1.68.64-2.87-1.19-6.59-2.05-1.56-.36-3.33-.77-5.25-.03-2.74,1.06-3.91,3.64-4,3.87-.88,2.03-.14,3.14-1.03,3.77-1.19.84-2.72-1.02-5.67-.51-.58.1-1.92.3-2.89,1.24-1.92,1.87-1.68,5.94.19,8.4v-.02Z"/>
      <path class="cls-8" d="m160.4,100.31c1.89-1.01,5.16-2.76,9.06-3.33,6.53-.95,8.25,2.35,13.6,1.13,4.59-1.05,4.87-3.83,9.23-5.54,3.22-1.27,8.29-1.81,16.2,1.9.97-1,2.82-2.63,5.59-3.45,4.75-1.41,10.84-.05,13.29,3.66,2.53,3.83-.4,7.81,2.64,10.68,1.91,1.8,4.76,1.85,5.31,1.86,3.99.07,6.26-2.7,7.36-1.86.93.7.45,3.53-.76,5.67-4.51,7.94-19.98,7.82-28.19,6.59-4.52-.68-8.08-1.88-10.28-2.73-1.71.18-4.22.23-7.11-.48-1.87-.46-3.42-1.11-4.61-1.72-3.31,2.47-6.37,3.68-8.45,4.3-8.24,2.48-19.35,1.39-25.38-5.47-1.05-1.19-1.74-2.33-2.17-3.13-1.19.45-3.01.91-5.11.54-1-.17-4.05-.7-4.57-2.65-.27-1.03.18-2.39,1.05-2.79.99-.46,1.91.59,3.26,1.02,2.92.93,5.46-1.78,10.03-4.22v.02Z"/>
      <path class="cls-6" d="m144.3,98.28c.26-.36,1.33-1.74,3.27-2.34,1.74-.54,3.21-.16,4.25.11,1.14.29,2.01.74,2.58,1.07-.13-.98-.38-3.83,1.41-6.19,3.09-4.06,9.24-2.74,9.85-2.6,2.88.67,4.76,2.35,5.62,3.23.23-.87,1.74-6.31,7.1-8.95,1.29-.63,4.73-2.06,8.81-1.01,1.82.47,3.17,1.27,4,1.86-.07-2.86,1.64-5.37,4.1-6.21,2.89-.98,5.4.83,5.62,1.01-.02-.3-.28-6.84,5.07-10.4,4.52-3.01,9.4-1.48,9.87-1.32,3.44,1.15,5.29,3.63,5.88,4.5.69-.27,8.01-3,14.65,1.43,5.19,3.46,7.63,9.74,6.78,15.21-.38,2.47-1.37,4.34-2.09,5.48.86.39,2.14,1.09,3.4,2.3.63.61,2.11,2.06,2.89,4.43.32.95,1.31,3.93-.17,6.97-1.46,3-4.54,4.41-4.71,4.21-.08-.09.41-.52.96-1.35.3-.45,1.69-2.66,1.55-5.55-.18-3.52-2.52-5.77-3.17-6.35-1.91-1.7-3.99-2.18-4.91-2.33.27-1.35.91-5.5-1.31-9.89-.29-.57-3.15-5.99-9.39-7.67-2.7-.73-5.06-.49-6.27-.29-3.9.66-5.28,2.77-9.96,3.97-1.9.49-3.5.62-4.51.66-.6,1.08-1.58,2.62-3.13,4.16-1,.99-1.72,1.71-2.82,2.11-2.84,1.03-5.39-.48-5.76-.7-1.11-.74-4.3-2.68-8.75-2.53-2.01.07-5.73.61-8.99,3.47-2.82,2.48-3.86,5.43-4.23,6.7-.52-.54-3.61-3.67-8.12-3.41-.91.05-3.32.23-5.39,2.11-2.7,2.46-2.71,5.88-2.7,6.46-.44-.56-1.53-1.76-3.32-2.24-2.18-.59-5.2,0-6.66,2.32-1.03,1.65-.86,4.26.48,5.54.11.11.23.2.37.29-.14-.05-.28-.13-.43-.21-.62-.36-2.41-1.4-2.9-3.47-.54-2.24.81-4.09,1.17-4.58h0Z"/>
      <path class="cls-3" d="m218.48,110.04c-3.7-.12-7.14-2.66-8.87-6.48-3.1,2.43-5.29,2.61-6.7,2.36-3.54-.65-3.81-4.36-8.44-5.9-3.49-1.17-6.96-.44-6.96-.44-2.6.54-4.18,1.77-5.94,1.03-1.12-.48-1.75-1.52-2.1-2.26.73-.09,1.26-.3,1.58-.45,1.51-.71,2.59-2.04,3.29-3.15,1.34-1.27,3.78-3.21,7.35-4.26,5.87-1.73,10.82.13,12.36.78,1.8.77,3.16,1.69,4.06,2.39-.02-.61,0-1.46.16-2.46.1-.62.59-3.71,2.46-5.93,2.52-2.98,7.24-4,11.11-2.78,4.35,1.37,6.27,5.13,6.9,6.36,2.47,4.85,1.96,10.88-1.02,15.27-1.1,1.62-4.14,6.09-9.23,5.92h0Z"/>
      <path class="cls-6" d="m224.15,108.14l-.05-.05c2.79-2.55,4.9-6.62,4.07-9.16-.12-.37-.5-1.54-1.52-2.02-1.07-.51-1.79.22-2.97.23-2.96,0-3.55-4.62-7.2-5.37-1.93-.4-3.56.52-3.97.76-2.52,1.42-3.13,4.13-3.24,4.62-1.01-.94-2.72-2.32-5.18-3.28-4.04-1.58-7.71-1.1-9.53-.72-3.34.68-6.11,2.41-7.29,3.22-2.62,1.81-4.13,3.72-5.98,3.3-.85-.2-1.45-.82-1.83-1.33.73-.09,1.26-.3,1.59-.45,1.51-.71,2.59-2.04,3.29-3.15,2.35-3.66,7.71-4.99,8.3-5.13,4.1-1.02,7.69.26,9.8,1.01,2.53.9,4.43,2.11,5.67,3.04-.02-.61,0-1.46.16-2.46.1-.62.59-3.71,2.46-5.93,2.43-2.87,7.1-4.04,11.11-2.78,4.35,1.37,6.27,5.13,6.9,6.36,3.76,7.37-.82,14.95-1.02,15.27-.59.95-1.72,2.51-3.56,4.02h-.01Z"/>
      <path class="cls-6" d="m176.27,107.77c.02-.26.05-1.12-.54-1.87-.72-.93-1.84-1-2.23-1.02-1.27-.08-2.19.57-2.46.77,0-.34.02-1.8-1.07-3.04-.99-1.12-2.25-1.35-2.71-1.42-.31-.05-2.68-.4-3.96,1.15-.73.88-.83,2.04-.86,2.29-.04.45,0,.83.04,1.09-.09-.14-.83-1.24-2.21-1.34-1.32-.1-2.18.79-2.39,1.01-1.24,1.28-.92,3.06-.88,3.25-.92-.28-1.92,0-2.51.72-.67.81-.71,2.01-.08,2.9.18.16.46.39.81.64.19.14,2.22,1.54,4.78,1.87,3.79.48,4.88-1.91,8.81-1.15,1.03.2.75.32,1.95.58.76.16,5.3,1.12,8.35-1.42.64-.54,1.87-1.58,1.74-3.02-.09-1.03-.87-2.14-2.07-2.47-1.32-.36-2.38.4-2.52.5v-.02Z"/>
      <path class="cls-3" d="m168.72,109.91c2.05.49,3.4,1.73,4.04,2.41.1-.18,1.07-1.89,2.89-2.03,1.17-.09,2.69.47,2.87,1.42.18.96-1.11,1.92-1.38,2.13-1.97,1.46-3.72.64-8.56.88-2.88.14-3.58.5-5.93.25-3.4-.36-4.21-1.34-4.5-1.91-.05-.1-.38-.74-.23-1.53.27-1.48,1.94-2.07,2.12-2.12.22-.08,1.84-.62,2.87.37.5.48.62,1.1.66,1.4.31-.34.83-.83,1.6-1.16,1.42-.61,2.74-.3,3.56-.1h0Z"/>
      <circle class="cls-5" cx="366.5" cy="129.5" r="1.5"/>
    </g>
  </g>
</svg>