<?xml version="1.0" encoding="utf-8"?>
<!-- Generator: Adobe Illustrator 28.0.0, SVG Export Plug-In . SVG Version: 6.00 Build 0)  -->
<svg version="1.1" id="Layer_1" xmlns="http://www.w3.org/2000/svg" xmlns:xlink="http://www.w3.org/1999/xlink" x="0px" y="0px"
	 viewBox="0 0 800 800" style="enable-background:new 0 0 800 800;" xml:space="preserve">
<style type="text/css">
	.st0{fill:#39527A;}
</style>
<g>
	<g>
		<g>
			<path class="st0" d="M69.5,387.6v272.5c0,38.8,31.5,70.4,70.4,70.4s70.4-31.5,70.4-70.4V387.6H69.5z"/>
		</g>
	</g>
</g>
<g>
	<g>
		<g>
			<path class="st0" d="M237.8,69.5V360l0,0v300.1c0,27.6-11.6,52.5-30,70.4h452.3l0,0c38.8,0,70.4-32.1,70.4-71.9V269.7v-48.5V69.5
				H237.8z M304.8,155.6H467v276.5H304.8V155.6z M673.1,650.5H269.9V623h403.1V650.5L673.1,650.5z M673.1,556.8H269.9v-27.5h403.1
				V556.8L673.1,556.8z M673.1,379.8H521.5v-27.5H673L673.1,379.8L673.1,379.8z M673.1,295.1H521.5v-27.5H673L673.1,295.1
				L673.1,295.1z M673.1,210.4H521.5v-27.5H673L673.1,210.4L673.1,210.4z"/>
		</g>
	</g>
</g>
</svg>
