<?xml version="1.0" encoding="utf-8"?>
<!-- Generator: Adobe Illustrator 28.0.0, SVG Export Plug-In . SVG Version: 6.00 Build 0)  -->
<svg version="1.1" id="a" xmlns="http://www.w3.org/2000/svg" xmlns:xlink="http://www.w3.org/1999/xlink" x="0px" y="0px"
	 viewBox="0 0 24 24" style="enable-background:new 0 0 24 24;" xml:space="preserve">
<style type="text/css">
	.st0{fill:#FFFFFF;}
	.st1{fill:#465577;}
	.st2{fill:none;stroke:#465577;stroke-linecap:round;stroke-miterlimit:10;}
</style>
<polygon class="st0" points="2.3,10.2 2.3,6.8 12,4.3 21.7,10.2 12.2,13.9 "/>
<path class="st1" d="M2.1,5c0.1-0.3,0.3-0.4,0.6-0.4L12,5.9l9.3-1.3c0.2,0,0.5,0.1,0.6,0.3l1.6,3.4c0.3,0.7,0,1.6-0.8,1.8L16.5,12
	c-0.5,0.2-1.1-0.1-1.4-0.6L12,5.8l-3.2,5.7C8.5,12,8,12.2,7.4,12.1l-6.2-1.9C0.5,9.9,0.1,9.1,0.5,8.3L2.1,5z M12,8.5l2.1,3.7
	c0.6,1,1.7,1.5,2.8,1.1l4.9-1.5v6.8c0,0.9-0.6,1.7-1.4,1.9l-7.8,2.1c-0.4,0.1-0.8,0.1-1.2,0l-7.8-2.1c-0.8-0.2-1.4-1-1.4-1.9v-6.7
	L7,13.4c1.1,0.3,2.2-0.1,2.8-1.1L12,8.5L12,8.5L12,8.5z"/>
<polyline class="st2" points="3.7,4 12,2.3 20.5,4 "/>
</svg>
