<?xml version="1.0" encoding="utf-8"?>
<!-- Generator: Adobe Illustrator 28.0.0, SVG Export Plug-In . SVG Version: 6.00 Build 0)  -->
<svg version="1.1" id="Capa_1" xmlns="http://www.w3.org/2000/svg" xmlns:xlink="http://www.w3.org/1999/xlink" x="0px" y="0px"
	 viewBox="0 0 800 800" style="enable-background:new 0 0 800 800;" xml:space="preserve">
<style type="text/css">
	.st0{fill:#12BADC;}
</style>
<g>
	<g>
		<path class="st0" d="M740.7,227.8c-4.9-37.4-24.7-77.4-57.9-110.6C649.6,84,609.6,64.2,572.2,59.3c-16.9-2.2-39.5-11.6-53.1-22
			C489.2,14.4,447,0,400,0s-89.2,14.4-119.2,37.3c-13.5,10.4-36.1,19.7-53.1,22c-37.4,4.9-77.4,24.7-110.6,57.9
			c-33.2,33.2-53,73.2-57.9,110.6c-2.2,16.9-11.6,39.5-22,53C14.3,310.8,0,353,0,400s14.3,89.2,37.3,119.2
			c10.4,13.5,19.7,36.1,22,53c4.9,37.4,24.7,77.4,57.9,110.6c33.2,33.2,73.2,52.9,110.6,57.9c16.9,2.2,39.5,11.6,53.1,22
			C310.8,785.6,353,800,400,800s89.2-14.4,119.2-37.3c13.5-10.4,36.1-19.7,53.1-22c37.4-4.9,77.4-24.7,110.6-57.9
			c33.2-33.2,53-73.2,57.9-110.6c2.2-16.9,11.6-39.5,22-53C785.7,489.2,800,447,800,400c0-47-14.3-89.2-37.3-119.2
			C752.3,267.3,742.9,244.7,740.7,227.8z M654.9,269L367.5,556.5l-46,46c-12.7,12.7-33.3,12.7-46,0l-46-46L145,472
			c-12.7-12.7-12.7-33.3,0-46l46-46c12.7-12.7,33.3-12.7,46,0l61.5,61.5L563,177c12.7-12.7,33.3-12.7,46,0l46,46
			C667.6,235.7,667.6,256.3,654.9,269z"/>
	</g>
</g>
</svg>
