<?xml version="1.0" encoding="utf-8"?>
<!-- Generator: Adobe Illustrator 28.0.0, SVG Export Plug-In . SVG Version: 6.00 Build 0)  -->
<svg version="1.1" id="Capa_1" xmlns="http://www.w3.org/2000/svg" xmlns:xlink="http://www.w3.org/1999/xlink" x="0px" y="0px"
	 viewBox="0 0 800 800" style="enable-background:new 0 0 800 800;" xml:space="preserve">
<style type="text/css">
	.st0{fill:#FFFFFF;}
</style>
<g>
	<g>
		<path class="st0" d="M650,400H266.7V233.3c0-36.8,13-68.2,39.1-94.3c26-26,57.5-39.1,94.3-39.1c36.8,0,68.2,13,94.3,39.1
			c26,26,39.1,57.5,39.1,94.3c0,9,3.3,16.8,9.9,23.4c6.6,6.6,14.4,9.9,23.4,9.9H600c9,0,16.8-3.3,23.4-9.9
			c6.6-6.6,9.9-14.4,9.9-23.4c0-64.2-22.8-119.2-68.5-164.9C519.2,22.8,464.2,0,400,0c-64.2,0-119.2,22.8-164.8,68.5
			c-45.7,45.7-68.5,100.6-68.5,164.9V400H150c-13.9,0-25.7,4.9-35.4,14.6c-9.7,9.7-14.6,21.5-14.6,35.4v300
			c0,13.9,4.9,25.7,14.6,35.4c9.7,9.7,21.5,14.6,35.4,14.6h500c13.9,0,25.7-4.9,35.4-14.6c9.7-9.7,14.6-21.5,14.6-35.4V450
			c0-13.9-4.9-25.7-14.6-35.4C675.7,404.9,663.9,400,650,400z M439.1,608.1v97.8c0,19.7-16,35.7-35.7,35.7h-6.9
			c-19.7,0-35.7-16-35.7-35.7v-97.8c-21-13.1-34.9-36.3-34.9-62.8c0-40.9,33.2-74.1,74.1-74.1s74.1,33.2,74.1,74.1
			C474.1,571.8,460.1,595,439.1,608.1z"/>
	</g>
</g>
</svg>
