<svg id="Слой_1" data-name="Слой 1" xmlns="http://www.w3.org/2000/svg" viewBox="0 0 1600 1600"><defs><style>.cls-1{fill:#fff;}.cls-2{fill:#f8a541;}.cls-2,.cls-3,.cls-4{stroke:#fff;stroke-miterlimit:10;stroke-width:3px;}.cls-3{fill:#39527a;}.cls-4{fill:#61b357;}</style></defs><path class="cls-1" d="M799.5,10.5c-435.75,0-789,353.25-789,789s353.25,789,789,789,789-353.25,789-789S1235.25,10.5,799.5,10.5Zm480,1272.3c-123.13,122.31-292.74,197.87-480,197.87-186.64,0-355.74-75.07-478.78-196.65-125-123.49-202.39-295-202.39-484.52,0-185.5,74.15-353.7,194.45-476.54,123.64-126.27,296-204.63,486.72-204.63,191.32,0,364.22,78.88,488,205.89C1407,447,1480.67,614.62,1480.67,799.5,1480.67,988.44,1403.74,1159.41,1279.5,1282.8Z"/><path class="cls-2" d="M1301.06,1304.5c-128.66,127.81-305.89,206.76-501.56,206.76-195,0-371.72-78.43-500.29-205.48l302.16-301.22a285.12,285.12,0,0,0,396.6-.33Z"/><path class="cls-2" d="M1309.37,302.88,1006.31,603.2a285.11,285.11,0,0,0-413.23-.41L290.92,301.56C420.12,169.62,600.24,87.74,799.5,87.74,999.41,87.74,1180.08,170.16,1309.37,302.88Z"/><path class="cls-1" d="M799.5,521A277.72,277.72,0,1,1,688,544.23,276.44,276.44,0,0,1,799.5,521m0-6.65a285.18,285.18,0,1,0,206.81,88.85A284.29,284.29,0,0,0,799.5,514.35Z"/><path class="cls-1" d="M645.75,213.15l-1.29,1.2v28.38c2.48,3,5.06,2.56,7.48-.37V214.73C650.07,212.91,647.92,210.65,645.75,213.15Z"/><path class="cls-1" d="M588.12,230c-4.18,4.16,2.76,9.67,5.19,14.58,4.35,6.46,9.35,18.57,13.84,10.51,1.84-1.37-5.19-11.27-6.82-13.88C594.55,232.49,592,225.89,588.12,230Z"/><path class="cls-1" d="M705.45,231c-5.1,6.16-9.07,13-13.92,20.35-2.41,3.35-2.31,5.4,1.17,6.9,2.82,1.12,5.5-3.4,6.73-5.4,1.49-2.12,9-13.42,10.22-15.54C713.2,232.91,709.3,228.56,705.45,231Z"/><path class="cls-1" d="M639.39,263.26c-41.93,6.73-65.59,53.88-43,91.49,12.5,18.52,19.69,16.3,20.31,43,0,2.78.83,4.45,2.74,5.23-.32.66,48.09.29,57.88.25,2.43-2.57,2.17-1.18,2.54-8.18.39-29.61,17.77-27,25.71-52.27C720.8,301.15,683.71,256.57,639.39,263.26Zm19,7.93c30.36,6.21,48.07,35.74,41.17,64.78-6.65,25.95-24.94,25.2-27.26,55a11.3,11.3,0,0,1-.87,3.61c-.62.79-46.16.79-46.78,0a13,13,0,0,1-.71-3.61c-1-10-1.93-13.39-5.15-20.11-.58-3-9.72-11.77-12.84-15.83C577.4,316.87,609.71,262.28,658.34,271.19Z"/><path class="cls-1" d="M645.5,279.46c-5.49,7.46,9.54,6.42,15.66,8.68,13.19,3.95,25.85,19.72,26.3,34.66.18,4.84,2,7.1,5.4,5.77,5.55-2.35.6-15.39-.62-19.9-4.78-13.11-16.56-23.95-29.71-28.29C658.76,279.43,648.62,276.88,645.5,279.46Z"/><path class="cls-1" d="M552,268.87c-4.1,3.74-2.14,5.34,3.53,8.43a42.23,42.23,0,0,0,5.32,2.78c2.54,1.58,7.75,4.34,10.6,5.9,3.69,2.33,6.39,2.29,7.6-.12,3.24-5.16-8.2-8.36-12-11.05C554.07,268.41,555.52,267.13,552,268.87Z"/><path class="cls-1" d="M737.53,270.4c-5.15,2.7-8.74,4.58-13.51,7.27-3.64,2.39-7.25,2.26-7.14,6.69,1.72,5.44,3.41,3.78,10.76.05,5.51-3.06,10-5.05,13.58-7.36,2-1.06,5.66-2.89,4.82-5.69C743.81,266.79,742.38,267.8,737.53,270.4Z"/><path class="cls-1" d="M620.61,407.84c-5.85,2.29-8.2,9.91-3.53,14.55-.12,5.83,42.94,2.49,57.08,3.32,4.51-2.27,6.33-4.66,7.77-9.39-1.69-5.27-2.86-7.25-7.77-9.1C665,407.34,619.62,407,620.61,407.84Zm52.14,7.23c2.42,3.18-.86,2.05-24.68,2.46-25.57-.28-26.18,1.15-25-2.46.67-.74,1.58-.79,24.68-.79S671.84,414.33,672.75,415.07Z"/><path class="cls-1" d="M626.55,430.36c-4.16,2-5.34,7.48-3.95,11.47.61,2.44,3.34,4.25,5.82,5.69,7-.06,40.81.26,40.26-.58,7.82-4.13,7.4-13.67-.29-17.49l-39.55-.25ZM665.81,437c1.77,3.32-.13,2.49-17.53,2.66-17.62,0-18.36,0-18.36-1.5,1.54-2.87,2-1.36,18.28-1.83C663.07,436.31,665.27,436.39,665.81,437Z"/><path class="cls-1" d="M303.14,620.44c-.57.27-2.47,10.78-2.77,11.14-6.68,2-10.34,8.43-18.09,1.89-7.19-5.38-5-1.31-13.82,5.73-18,13.76,2.09,16.79-11.14,18.14-15.73,2.23-21.93,21.47-18.51,35.34-1.22,5.93,15.57,15.5,4.69,16.71-6.85,2.67-14.05-5.61-21.11-8.71-18.91-.45-8.23.48-11,35.39,2.92,41.51-7.53,30.84,9.08,38.11,6.45,1.69,22.2,8.06,27.19,8.17,5.45-.3,4-4.09,9.8.34,6.74,3.52,5.05,10.35,12,12.35,2.13.63,2.26.71,3.26,3.68,1.41,5.25,7.88,5.43,10.1,9.93,1.36,5,7.41,5.9,9.71,8.84a12.59,12.59,0,0,0,6.62,7.83c4.19,2.33,8.59-2.31,12,.83,5.78,5.79,16.15,3.07,18.34-4.39.5-1.89.8-2.18,3.52-3.18a11,11,0,0,0,6.28-6.41c1.57-4.64,9.13-4.39,10.18-10.39,4.26-6.59,9.61-3.46,11.39-14.16-.71-.21,59.87-30.26,59.22-30.27.67-.63.71-2.35.71-24.84,0-18.22-.13-24.25-.5-24.62-4.65-1-5.95-1-12.36,2.3-5.53,2.81-5.53,2.81-7.33,2.3-.68-.51-18.84-4.3-16.24-5,17.34-16.08,10.85-49.4-14.5-51.43-.26-.8,2.61-6.35,2.35-7.29,2.08.46-17.45-18.57-17.59-18-.89.13-9.7,6.23-10.6,5.87-5.64-2.49-13.28-2.34-13.48-10.51C332.91,614.91,307.55,621.11,303.14,620.44Zm19.81,7.2c2.43,3.56.49,10.81,6.45,11.1,11.93,3.35,12.76,9.75,24.29,1.22,11.8,7.39,13.4,16.71-.46,23-6.66-8.31-16.9-16.89-28.77-18.93-38.09-6.88-40.53,28.44-52.73,14.53-.84-.83-3.39-6.91-3.39-8.12,2.18-3.13,9.35-14.45,14.7-8,7,5.75,15.36-4,23.24-5.11C309.6,624.68,308.43,626.15,323,627.64Zm2,24c8.42,1.14,21,10.91,23.41,18.43-1.75,5.23-2.92,15.62-1.51,21.95-.33,9.86,19.54,16.71-.38,18.51-2.27,1.22-7.42,0-9.71-.72-15.21-1.5,5.76-9.48,3.14-23.66-3.27-58-74.46-19.61-38.11,21.49,1.3.6-9,2.9-12.86,3.64-4.49-2.15-18-1-9.93-7.33,14.09-13.26.9-29,7.37-38.49C295.31,653.44,309.5,648.33,324.92,651.68ZM268.5,665.42c13,5.66,14.1,28.28,2.81,35.77-2.93,2-3,2-3,7.28-1.76,7.93,6.35,5.75,10.34,8.21.33,1.76-3.71,7.71-3.14,10.22-.28,4.53-.6,3.5-5.07,4.77-7.41,2.65-3.7-3.16-5.86-6,.12-1.5-21.27-9.85-12.19-11,5.18-.4,3-7.76,3-10.81-2.86-3.14-8.58-7.17-9.3-11.64C241.35,677.73,251.43,658.75,268.5,665.42Zm54.78.42c9.79,4.1,11.53,19.39,8,28.14-4.24,8.08-12,8.62-8.41,19.6,11.4,4.79,29.64,2.44,26.67,19.6,0,7.41-.16,8.13-1.8,8.13-14.67-2.92-41.12-13.24-54.52-13.53-9,1-15.39,1.3-6.37-7.58.7-.86,21.39-5.9,22.32-6.58,3.77-11.06-4.13-11.5-8.38-19.64C294.72,679.2,304.82,657.61,323.28,665.84Zm53.61-.25c13,5.76,13.82,29.08,1.72,36.14C370.47,715.3,382,714.62,391.34,718c-2.72,3.51-28.19,15.77-33.71,18.22-1.05.87-1-10.24-1.14-12.27-6.65-10.19,0-7.1,6.79-10.31,3.67-11.1-4.15-11.48-8.42-19.64C348.71,679.78,358.93,657.86,376.89,665.59Zm-155.12,43,.83.45c-.34.42,12.86,6.55,21.7,13.16.29.8-11.48,46.82-12.19,47.53.55,1.45-12.85-3.74-12.86-4.06-.71-.59-.75-2.47-.75-28.77C219.39,707.5,216.51,706.52,221.77,708.6Zm191.81,25.17c0,9.55,0,17.8-.13,18.34-.33,1.38-55.24,28.86-56.58,28.31-.54-.21-7.5-6.28-15.54-13.52-29.91-31.44-27.13-5-47-6.66-8.58-7.28,17.91-15.16,21.53-17.89.8-3.13,29.37,6.12,32.46,6.08,18.33-6.52,44.19-22.85,62.23-31.5C415.47,715.4,412.59,715.26,413.58,733.77ZM255,727.91c8,1.15-8.73,40.63-9,45.94-8.25.92-6.29-1.4-3.48-13.78C251.44,729.92,247.74,723.28,255,727.91Zm47.49,8.37c15,1.36-16.93,11.07-14.66,13.32-7.85,13.9,7.31,26.45,22,13.23,14.62-11.22,19,5.11,31.87,13.91,12,10.93,15.38,12.35,6.78,15.08-4.71-.71-21-23.21-24-10.73.25,2.89,29,19.81,13.9,20.73-1.05.72-13.33-11.1-19.9-15.28-12.28,4.59,12.48,16.88,14,21.19-.92,16.4-25.87-18.56-31.83-19.14-3.16-2.63-3.22-8.22-8-9.21-5.64-1.76-4.57-9.42-11-10.6-6.38-3.66-13.29,6.39-17.89,9-7.84-3.43-11.34-4.38-7-14.86,2-6.35,4.34-17.13,6.45-21.7C273.51,738.21,291.56,733,302.47,736.28ZM280,775.86c7.21,3.56-9.84,18.92-10.85,8.92C269.85,782.86,276.35,773.34,280,775.86Zm10.26,10.3c6,2.8-5.21,12.2-7.62,12.1-4.48-.79-4.75-3.84,0-8.25C286.93,785.66,288,785.11,290.28,786.16Zm10.05,10.05c5.71,3.33-3.86,10.88-6.74,12.36C283.55,808.66,295.46,793.54,300.33,796.21Zm9.89,10c6.72,2.22-6.19,16.2-9.68,11.35C295.81,815.42,308,804.13,310.22,806.22Zm10,9c9,9.91-14.05,7.77-1.21-.67A3.88,3.88,0,0,1,320.18,815.27Z"/><path class="cls-1" d="M1252.78,606.72c-61.33,23.12-19.8,77.76,26.36,110.1,10.46,8.18,8.07,8.67,17.72,1.12,110.55-73.66,34.62-141.22-5.68-97.56C1286.75,628.9,1278.75,601.65,1252.78,606.72Zm10.68,12.75c15.15-1.42,19.78,39.71,31.66,19.66,3.23-8.61,8.28-15.15,13.91-18,15.56-8,34.53,6.24,33.23,23.59,3.59,14.56-24.17,39.94-45.11,56.62-5.67,4.84-7.91,6.5-8.61,6.42-1.66-.21-28.19-23-36.8-31.58C1226.74,658.88,1230.44,614.45,1263.46,619.47Z"/><path class="cls-1" d="M1249.88,726.3c-9-.44-19.46,11.45-23.8,7.16-4.13-5.81-17.29-4.86-23.39-4.84-17.5-.13-17.75-.08-19.41,2.81-2.06,11.65-.85,84.54,0,79,4.75,4.69,1.24,2.28,18.25,3,12.34,0,15.07-.13,17-.67a16.7,16.7,0,0,0,6.79-3.56c6.84-2.85,22.11,4.36,31.46,3.81,3.1,1,78,.49,76.45-.74,21.16-7.18,20.9-13.81,38.37-35.39,22-30.46,25-30,7.2-46.78-14.52-8.3-28.62,13.41-38.29,22-3.33-4-7.35-9.55-13.33-11.3l-36-.42C1278.75,732.56,1265.5,723.67,1249.88,726.3ZM1265,739.92c7.63,1.56,13.21,9.36,20.69,11.55,6.1,2.87,40.69.61,40.07,2.44,17.54,24-68.55-2.23-50.41,21.4-.43,2.58,26.39,1.17,27.44,1.57,28.1.12,28.72.12,32.86-2.07,2.48-1.32,5.09-3.93,21.48-21.65,11.3-12.17,11.88-12.62,15.07-12,16.79,1-30.78,58.58-41.27,58.73-10.9,1.5-88.71,3.06-98.71-4.51C1231.77,767.91,1222.57,731.65,1265,739.92Zm-48.72,1.82a6.11,6.11,0,0,1,1.58,1c2.63,0,.81,48.9,1.19,54.88-3.31,3.58-2.63,3.25-14,3.4-17.67-.19-7.55.22-10.22-30C1194.53,733.41,1192.27,740.64,1216.27,741.74Z"/><path class="cls-1" d="M634.66,1162.55c-4.94,6.82-27.77,19.84-22.91,31.57,1.12,10,1.12,10.24-.58,12-2.48,2.88-2.26.86-6.13-1.66A91.64,91.64,0,0,0,567.81,1187c-4-1-9.42-1.13-12.33-1.92-1-3.36-.64-15.1-7.54-9.58-3.44,2.2,1.31,11.38-5.75,10.16-39.52,3.29-74.86,37.9-78.13,78.39,1.48,8.23-13.35,1.11-11.21,9.25-.71,3.84,8.64,2.59,10.5,3.54,2.19,16.82,7.38,34.78,18.37,48.44,35.94,44.5,65.62,22.12,66.1,43.73,6.89,4.75,6.63-4.72,7.41-9.25,41.45-3.17,78-36.09,82-78-1.62-9.38,10.36-2.18,11.41-8.41,2.13-5.49-7.44-4.4-10.5-5.42-1.6-16.43-7.93-35.92-19.45-49.81-11.49-11.72,13.14-5.24,18.7-6.5.36.33,25.89-24.56,23.37-24,1.89-7.74-15.23-4.64-18.45-6.79C639.86,1177.67,643.59,1159.3,634.66,1162.55Zm-1.59,16.16c-.3,13.26,6.65,9.19,13.17,12.28.28.41-13.22,14.89-13.33,12.37-4.73-1.43-13.42,1.34-12.37-7-.29-2.59-.63-5.34-.75-6.09-.21-1.33,0-1.66,5.74-7.41C630,1179.16,632.23,1174.38,633.07,1178.71Zm-87.21,15.7c-.8,7.09,7.88,13.39,8.83,3.5,0-4.08.21-4.21,5.66-3.58,13.68.84,33.82,10,42.65,19.61,0,.59-10.41,10.79-11,10.79-33.83-29.77-93.47-11.25-102.34,33.28-14.32,125.87,179.25,78.17,108.75-26.83,12.42-16.24,12.47-11.36,23.28,7a74.45,74.45,0,0,1,7.5,29.49c-.45,1.43-6.69.21-7.37,1.84-4.94,5,2.06,7.46,7.2,7.07.33,11.39-3.57,24.36-10.66,36.32-12.47,21.72-39.58,38.3-63.47,37.82.05-4.39-.91-11-6-8.33-2.17.27-2.09,5.64-2.33,8.33-12.51.47-29.28-5.48-41.45-13.87-18.24-12.79-33.18-37.77-32.82-59.85,1.79-1.22,8.08,0,8.46-3,2.84-5.87-6-5-8.46-6.32C472.37,1231.64,508.42,1193.25,545.86,1194.41Zm15.91,24.7c7,1.52,19.68,6.52,23.74,12.2,0,.58-10.29,10.91-10.91,10.91-15.26-11.53-38.26-10.9-51.4,3.84-29.67,28.52,7.82,80.25,44.19,60.51,21.88-9.76,27.71-39.93,13.54-58.06,0-.66,10.24-10.87,10.91-10.87,5.41,3,13.88,22.93,13.12,32.61,4.18,56.72-78.16,78.17-102.63,27.12C480.88,1259.08,518.53,1209,561.77,1219.11Zm-3.92,24.36c4.35,2,15.32,3.1,6.67,9.37-3.55,3.36-13.19,13.36-17.87,18.12,2.36,11.23,8,2.79,16.78-5.54,5.71-5.66,10.67-10.28,11-10.28,13.16,13.2,4.31,42.07-15.54,46.27C509.79,1312.4,508.84,1233.82,557.85,1243.47Z"/><path class="cls-1" d="M1177.09,908.26a7.79,7.79,0,0,1-3.31-.72,3.63,3.63,0,0,1-2-2.15l-15.87-51.67a2.8,2.8,0,0,1-.16-.72,2.34,2.34,0,0,1,.84-1.79,7.06,7.06,0,0,1,4.43-1.71,4.31,4.31,0,0,1,1.91.39,2,2,0,0,1,1,1.36l13.15,45.45,13.08-45.45a2.22,2.22,0,0,1,1.11-1.36,4.15,4.15,0,0,1,1.84-.39,6.56,6.56,0,0,1,2.39.47,6.81,6.81,0,0,1,2,1.24,2.34,2.34,0,0,1,.84,1.79,1.12,1.12,0,0,1,0,.32,1.54,1.54,0,0,0,0,.4l-15.79,51.67a3.6,3.6,0,0,1-2,2.15A8,8,0,0,1,1177.09,908.26Z"/><path class="cls-1" d="M1202.69,907.78a6.83,6.83,0,0,1-2.4-.48,6,6,0,0,1-2.07-1.24,2.39,2.39,0,0,1-.8-1.79,5.31,5.31,0,0,1,.08-.72l15.87-51.66a3.57,3.57,0,0,1,2-2.15,7.79,7.79,0,0,1,3.31-.72,8,8,0,0,1,3.39.72,3.55,3.55,0,0,1,2,2.15l15.79,51.66a2.09,2.09,0,0,1-.68,2.48,6.29,6.29,0,0,1-2.07,1.27,6.73,6.73,0,0,1-2.43.48,3.79,3.79,0,0,1-1.8-.4,2.25,2.25,0,0,1-1.07-1.35l-3.27-11.33h-19.78L1205.64,906a1.93,1.93,0,0,1-1.08,1.35A4.24,4.24,0,0,1,1202.69,907.78Zm8-19.85h15.94l-8-27.35Z"/><path class="cls-1" d="M1250.12,907.78a4.88,4.88,0,0,1-2.55-.72,2.29,2.29,0,0,1-1.19-2.07V852.21a2.17,2.17,0,0,1,1.31-2.08,7,7,0,0,1,5.82,0,2.16,2.16,0,0,1,1.32,2.08v48.08h20.73a2,2,0,0,1,1.91,1.15,5.48,5.48,0,0,1,0,5.14,2,2,0,0,1-1.91,1.2Z"/><path class="cls-1" d="M1300.67,908.26a23.54,23.54,0,0,1-9.25-1.76,13.77,13.77,0,0,1-6.53-5.66q-2.4-3.9-2.4-10.36V852.21a2.17,2.17,0,0,1,1.28-2.08,6.57,6.57,0,0,1,3-.63,6.72,6.72,0,0,1,2.87.63,2.17,2.17,0,0,1,1.36,2.08v38.27q0,5.26,2.55,7.77c1.7,1.68,4.09,2.51,7.17,2.51a10,10,0,0,0,7.18-2.51q2.63-2.5,2.63-7.77V852.21a2.17,2.17,0,0,1,1.28-2.08,6.57,6.57,0,0,1,3-.63,6.78,6.78,0,0,1,2.87.63,2.16,2.16,0,0,1,1.35,2.08v38.27q0,6.45-2.43,10.36a14,14,0,0,1-6.58,5.66A23.5,23.5,0,0,1,1300.67,908.26Z"/><path class="cls-1" d="M1332.88,907.78a4.88,4.88,0,0,1-2.55-.72,2.27,2.27,0,0,1-1.19-2.07v-52.7a2.28,2.28,0,0,1,1.19-2.08,5,5,0,0,1,2.55-.71h28.39a2.23,2.23,0,0,1,2.15,1.19,5.26,5.26,0,0,1,.64,2.47,4.94,4.94,0,0,1-.72,2.67,2.28,2.28,0,0,1-2.07,1.16h-23.68v18.26h12.28a2.37,2.37,0,0,1,2.07,1,4.07,4.07,0,0,1,.72,2.39,4.32,4.32,0,0,1-.64,2.19,2.3,2.3,0,0,1-2.15,1.08h-12.28v18.34h23.68a2.32,2.32,0,0,1,2.07,1.11,4.91,4.91,0,0,1,.72,2.71,5.23,5.23,0,0,1-.64,2.47,2.24,2.24,0,0,1-2.15,1.2Z"/><path class="cls-1" d="M1385.42,908.42a25.64,25.64,0,0,1-9.16-1.52,17.71,17.71,0,0,1-6.22-3.7c-1.49-1.47-2.24-2.86-2.24-4.19a4.51,4.51,0,0,1,.52-2,6.2,6.2,0,0,1,1.36-1.8,2.65,2.65,0,0,1,1.79-.76,3.07,3.07,0,0,1,2.11.92c.67.61,1.48,1.34,2.44,2.19a14.69,14.69,0,0,0,14.23,2.28,8,8,0,0,0,3.59-2.79,8.14,8.14,0,0,0,1.31-4.75,8.54,8.54,0,0,0-1.39-5,11.41,11.41,0,0,0-3.75-3.35,43.22,43.22,0,0,0-5.06-2.47c-1.81-.75-3.65-1.54-5.5-2.39a25.76,25.76,0,0,1-5.11-3.07,13.26,13.26,0,0,1-3.71-4.55,15.15,15.15,0,0,1-1.39-6.89,15,15,0,0,1,1.63-7.34,13,13,0,0,1,4.35-4.7,18.81,18.81,0,0,1,6-2.52,28.81,28.81,0,0,1,6.46-.75,38.1,38.1,0,0,1,4.42.28,28.14,28.14,0,0,1,4.75,1,12.22,12.22,0,0,1,3.82,1.8,3.29,3.29,0,0,1,1.52,2.71,5.67,5.67,0,0,1-.4,1.87,5.5,5.5,0,0,1-1.16,1.88,2.55,2.55,0,0,1-1.95.79,4.65,4.65,0,0,1-2.31-.75,21,21,0,0,0-3.31-1.52,15.88,15.88,0,0,0-5.38-.76,15.55,15.55,0,0,0-5.15.8,7.83,7.83,0,0,0-3.54,2.35,6.29,6.29,0,0,0-1.28,4.11,6.19,6.19,0,0,0,1.4,4.18,11.59,11.59,0,0,0,3.7,2.79,50.39,50.39,0,0,0,5.07,2.2,56,56,0,0,1,5.5,2.43,26.29,26.29,0,0,1,5.1,3.39,14.28,14.28,0,0,1,3.75,5.06,18.38,18.38,0,0,1,1.39,7.61,17.74,17.74,0,0,1-2.35,9.53,14.24,14.24,0,0,1-6.46,5.62A22.64,22.64,0,0,1,1385.42,908.42Z"/><path class="cls-1" d="M694,1303.59a22.41,22.41,0,0,1-9-1.76,13.61,13.61,0,0,1-6.38-5.66q-2.36-3.9-2.35-10.36v-23.2q0-6.46,2.35-10.37a13.71,13.71,0,0,1,6.38-5.66,24.59,24.59,0,0,1,18.22,0,13.87,13.87,0,0,1,6.45,5.66q2.4,3.91,2.4,10.37v23.2q0,6.45-2.4,10.36a13.76,13.76,0,0,1-6.45,5.66A22.93,22.93,0,0,1,694,1303.59Zm0-7.5a9.54,9.54,0,0,0,7-2.51q2.55-2.5,2.55-7.77v-23.2c0-3.51-.83-6.1-2.51-7.78a10.95,10.95,0,0,0-14,0q-2.5,2.52-2.51,7.78v23.2q0,5.26,2.47,7.77A9.28,9.28,0,0,0,694,1296.09Z"/><path class="cls-1" d="M725.67,1303.11a4.32,4.32,0,0,1-2.71-.8,2.36,2.36,0,0,1-1-1.91v-52.78a2.29,2.29,0,0,1,1.2-2.08,5,5,0,0,1,2.55-.71h14.51a27.37,27.37,0,0,1,8,1.11,11.26,11.26,0,0,1,5.9,4.11q2.24,3,2.24,8.57a17,17,0,0,1-1.8,8.29,10.15,10.15,0,0,1-5,4.63,14.57,14.57,0,0,1,4.3,2.51,10.37,10.37,0,0,1,2.88,4.14,18.19,18.19,0,0,1,1,6.66v1.52q0,6.14-2.07,9.8a12.24,12.24,0,0,1-5.66,5.31,19.38,19.38,0,0,1-8.13,1.63Zm4.62-34.92h9.57q4.07,0,6-2.07c1.3-1.39,2-3.43,2-6.14a8.57,8.57,0,0,0-1-4.39,6,6,0,0,0-2.83-2.47,10.8,10.8,0,0,0-4.31-.8h-9.41Zm0,27.43h10a9,9,0,0,0,6.66-2.36c1.57-1.56,2.35-4.08,2.35-7.53v-1.28c0-3.5-.78-6-2.35-7.41a9.5,9.5,0,0,0-6.66-2.16h-10Z"/><path class="cls-1" d="M780.05,1303.59a22.59,22.59,0,0,1-9.41-1.88,14.91,14.91,0,0,1-6.46-5.3,14.05,14.05,0,0,1-2.31-8.05c0-1.59.36-2.67,1.07-3.23a5.05,5.05,0,0,1,3.15-.84,6.57,6.57,0,0,1,2.91.6,2.36,2.36,0,0,1,1.32,2.19,11.34,11.34,0,0,0,1,4.39,7.69,7.69,0,0,0,3,3.35,10.11,10.11,0,0,0,5.35,1.27,9.49,9.49,0,0,0,7-2.51c1.68-1.67,2.51-4.26,2.51-7.77v-33.49H780a2.3,2.3,0,0,1-2.08-1.15,5,5,0,0,1-.71-2.68,5.24,5.24,0,0,1,.63-2.47,2.27,2.27,0,0,1,2.16-1.19h13.95a5,5,0,0,1,2.67.71,2.31,2.31,0,0,1,1.16,2.08v38.19q0,6.45-2.4,10.36a13.87,13.87,0,0,1-6.37,5.66A22,22,0,0,1,780.05,1303.59Z"/><path class="cls-1" d="M811.7,1303.11a4.82,4.82,0,0,1-2.55-.72,2.28,2.28,0,0,1-1.2-2.07v-52.7a2.29,2.29,0,0,1,1.2-2.08,4.91,4.91,0,0,1,2.55-.71h28.38a2.24,2.24,0,0,1,2.15,1.19,5.14,5.14,0,0,1,.64,2.47,5,5,0,0,1-.72,2.68,2.28,2.28,0,0,1-2.07,1.15H816.4v18.26h12.28a2.37,2.37,0,0,1,2.07,1,4.09,4.09,0,0,1,.72,2.39,4.22,4.22,0,0,1-.64,2.19,2.29,2.29,0,0,1-2.15,1.08H816.4v18.34h23.68a2.31,2.31,0,0,1,2.07,1.11,4.91,4.91,0,0,1,.72,2.71,5.11,5.11,0,0,1-.64,2.47,2.23,2.23,0,0,1-2.15,1.2Z"/><path class="cls-1" d="M865.76,1303.59a21.88,21.88,0,0,1-8.82-1.76,13.82,13.82,0,0,1-6.41-5.66q-2.4-3.9-2.4-10.36v-23.2q0-6.46,2.4-10.37a13.87,13.87,0,0,1,6.45-5.66,22.16,22.16,0,0,1,8.85-1.75,22.38,22.38,0,0,1,9.53,1.87,15.44,15.44,0,0,1,6.3,5.1,12.62,12.62,0,0,1,2.27,7.46c0,1.81-.34,3-1,3.55a5.09,5.09,0,0,1-3.19.83,5.72,5.72,0,0,1-3-.68,2.44,2.44,0,0,1-1.2-2.11,16.64,16.64,0,0,0-.4-2.47,8.44,8.44,0,0,0-1.23-2.83,6.85,6.85,0,0,0-2.75-2.31,11.44,11.44,0,0,0-5-.92c-3.08,0-5.45.84-7.09,2.51s-2.47,4.27-2.47,7.78v23.2c0,3.51.83,6.1,2.51,7.77s4.1,2.51,7.29,2.51a10.74,10.74,0,0,0,4.83-.91,6.67,6.67,0,0,0,2.67-2.32,8.76,8.76,0,0,0,1.19-2.95c.22-1,.38-2,.48-2.83a2.42,2.42,0,0,1,1.24-2.15,6,6,0,0,1,2.91-.64,5,5,0,0,1,3.27.88c.69.59,1,1.75,1,3.51a13.45,13.45,0,0,1-2.27,7.69,15.16,15.16,0,0,1-6.34,5.3A22.19,22.19,0,0,1,865.76,1303.59Z"/><path class="cls-1" d="M906.74,1303.11a5.92,5.92,0,0,1-2.91-.72,2.26,2.26,0,0,1-1.32-2.07v-47.76H890.15a2.23,2.23,0,0,1-2-1.19,5.19,5.19,0,0,1-.72-2.72,5.47,5.47,0,0,1,.64-2.63,2.17,2.17,0,0,1,2.07-1.19h33.09a2.24,2.24,0,0,1,2.15,1.19,5.3,5.3,0,0,1,.64,2.55,5.61,5.61,0,0,1-.68,2.8,2.26,2.26,0,0,1-2.11,1.19H911v47.76a2.26,2.26,0,0,1-1.31,2.07A6,6,0,0,1,906.74,1303.11Z"/><path class="cls-1" d="M936.39,1303.11a6.3,6.3,0,0,1-2.91-.68,2.23,2.23,0,0,1-1.31-2.11v-52.78a2.17,2.17,0,0,1,1.31-2.08,7,7,0,0,1,5.82,0,2.16,2.16,0,0,1,1.32,2.08v52.78a2.22,2.22,0,0,1-1.32,2.11A6.24,6.24,0,0,1,936.39,1303.11Z"/><path class="cls-1" d="M968.21,1303.59a7.76,7.76,0,0,1-3.31-.72,3.62,3.62,0,0,1-2-2.15L947,1249.05a2.43,2.43,0,0,1-.16-.72,2.34,2.34,0,0,1,.84-1.79,6.55,6.55,0,0,1,2.07-1.24,6.68,6.68,0,0,1,2.35-.47,4.17,4.17,0,0,1,1.91.4,1.91,1.91,0,0,1,1,1.35L968.21,1292l13.07-45.45a2.19,2.19,0,0,1,1.12-1.35,4,4,0,0,1,1.83-.4,6.52,6.52,0,0,1,2.39.47,6.87,6.87,0,0,1,2,1.24,2.33,2.33,0,0,1,.83,1.79,1.12,1.12,0,0,1,0,.32,2.15,2.15,0,0,0,0,.4l-15.78,51.67a3.63,3.63,0,0,1-2,2.15A8,8,0,0,1,968.21,1303.59Z"/><path class="cls-1" d="M999.54,1303.11a4.88,4.88,0,0,1-2.55-.72,2.28,2.28,0,0,1-1.2-2.07v-52.7a2.29,2.29,0,0,1,1.2-2.08,5,5,0,0,1,2.55-.71h28.38a2.27,2.27,0,0,1,2.16,1.19,5.26,5.26,0,0,1,.64,2.47,5,5,0,0,1-.72,2.68,2.3,2.3,0,0,1-2.08,1.15h-23.68v18.26h12.28a2.38,2.38,0,0,1,2.08,1,4.15,4.15,0,0,1,.71,2.39,4.3,4.3,0,0,1-.63,2.19,2.31,2.31,0,0,1-2.16,1.08h-12.28v18.34h23.68a2.33,2.33,0,0,1,2.08,1.11,4.91,4.91,0,0,1,.72,2.71,5.23,5.23,0,0,1-.64,2.47,2.26,2.26,0,0,1-2.16,1.2Z"/><path class="cls-1" d="M1052.08,1303.75a25.74,25.74,0,0,1-9.17-1.52,17.8,17.8,0,0,1-6.22-3.7c-1.48-1.47-2.23-2.86-2.23-4.19a4.38,4.38,0,0,1,.52-2,6,6,0,0,1,1.36-1.8,2.63,2.63,0,0,1,1.79-.76,3.09,3.09,0,0,1,2.11.92l2.43,2.19a14.71,14.71,0,0,0,14.24,2.28,7.81,7.81,0,0,0,3.58-2.79,8.05,8.05,0,0,0,1.32-4.75,8.55,8.55,0,0,0-1.4-5,11.48,11.48,0,0,0-3.74-3.35,42.62,42.62,0,0,0-5.07-2.47c-1.8-.75-3.64-1.54-5.5-2.39a26,26,0,0,1-5.1-3.07,13.26,13.26,0,0,1-3.71-4.55,15.15,15.15,0,0,1-1.39-6.89,15,15,0,0,1,1.63-7.34,13,13,0,0,1,4.35-4.7,18.47,18.47,0,0,1,6-2.51,28.24,28.24,0,0,1,6.45-.76,38.27,38.27,0,0,1,4.43.28,27.83,27.83,0,0,1,4.74,1,12.28,12.28,0,0,1,3.83,1.8,3.29,3.29,0,0,1,1.52,2.71,5.67,5.67,0,0,1-.4,1.87,5.5,5.5,0,0,1-1.16,1.88,2.59,2.59,0,0,1-2,.79,4.62,4.62,0,0,1-2.31-.75,21.48,21.48,0,0,0-3.31-1.52,15.91,15.91,0,0,0-5.39-.76,15.53,15.53,0,0,0-5.14.8,7.86,7.86,0,0,0-3.55,2.35,7.14,7.14,0,0,0,.12,8.3,11.78,11.78,0,0,0,3.71,2.79,53.71,53.71,0,0,0,5.06,2.19,55.08,55.08,0,0,1,5.51,2.43,26.29,26.29,0,0,1,5.1,3.39,14.4,14.4,0,0,1,3.75,5.06,18.6,18.6,0,0,1,1.39,7.62,17.73,17.73,0,0,1-2.35,9.52,14.24,14.24,0,0,1-6.46,5.62A22.64,22.64,0,0,1,1052.08,1303.75Z"/><path class="cls-1" d="M191.94,924.94a6,6,0,0,1-2.91-.71,2.26,2.26,0,0,1-1.32-2.08V870.89a3.75,3.75,0,0,1,1.32-3.31,5,5,0,0,1,2.91-.92,7.21,7.21,0,0,1,2.63.44,5.5,5.5,0,0,1,2.07,1.47,15.58,15.58,0,0,1,2,2.88l11.16,21.12,11.32-21.12a16.7,16.7,0,0,1,2-2.88,5.23,5.23,0,0,1,2-1.47,7.21,7.21,0,0,1,2.63-.44,4.93,4.93,0,0,1,2.95.92,3.81,3.81,0,0,1,1.28,3.31v51.26a2.26,2.26,0,0,1-1.32,2.08,6.32,6.32,0,0,1-5.82,0,2.26,2.26,0,0,1-1.32-2.08V883.88l-10.68,19.78a4,4,0,0,1-1.44,1.47,3.45,3.45,0,0,1-1.67.44,3.31,3.31,0,0,1-1.51-.4,3.14,3.14,0,0,1-1.36-1.51L196.17,883.4v38.75a2.26,2.26,0,0,1-1.32,2.08A6,6,0,0,1,191.94,924.94Z"/><path class="cls-1" d="M246.72,924.94a6.31,6.31,0,0,1-2.92-.67,2.25,2.25,0,0,1-1.31-2.12V869.37a2.15,2.15,0,0,1,1.31-2.07,7,7,0,0,1,5.83,0,2.15,2.15,0,0,1,1.31,2.07v52.78a2.25,2.25,0,0,1-1.31,2.12A6.29,6.29,0,0,1,246.72,924.94Z"/><path class="cls-1" d="M276.14,925.58a25.66,25.66,0,0,1-9.17-1.51,17.72,17.72,0,0,1-6.22-3.71q-2.24-2.19-2.24-4.19a4.54,4.54,0,0,1,.52-2,6,6,0,0,1,1.36-1.79,2.61,2.61,0,0,1,1.79-.76,3.11,3.11,0,0,1,2.12.92q1,.91,2.43,2.19a13.77,13.77,0,0,0,3.58,2.23A15.55,15.55,0,0,0,281,917a7.89,7.89,0,0,0,3.59-2.79,8.11,8.11,0,0,0,1.31-4.74,8.58,8.58,0,0,0-1.39-5,11.64,11.64,0,0,0-3.75-3.35,44.87,44.87,0,0,0-5.06-2.47q-2.71-1.11-5.5-2.39a25.29,25.29,0,0,1-5.11-3.07,13.32,13.32,0,0,1-3.71-4.54,15.22,15.22,0,0,1-1.39-6.9,15,15,0,0,1,1.63-7.34,13,13,0,0,1,4.35-4.7,18.79,18.79,0,0,1,6-2.51,28.26,28.26,0,0,1,6.46-.76,40.46,40.46,0,0,1,4.42.28,29.18,29.18,0,0,1,4.75,1,12.21,12.21,0,0,1,3.82,1.79,3.3,3.3,0,0,1,1.52,2.71,6,6,0,0,1-1.56,3.75,2.56,2.56,0,0,1-1.95.8,4.58,4.58,0,0,1-2.31-.76,22,22,0,0,0-3.31-1.52,15.91,15.91,0,0,0-5.38-.75,15.56,15.56,0,0,0-5.15.79,7.84,7.84,0,0,0-3.54,2.36,7.08,7.08,0,0,0,.12,8.29,11.59,11.59,0,0,0,3.7,2.79,52.82,52.82,0,0,0,5.07,2.19,56,56,0,0,1,5.5,2.43,26.29,26.29,0,0,1,5.1,3.39,14.28,14.28,0,0,1,3.75,5.06,18.43,18.43,0,0,1,1.39,7.62,17.76,17.76,0,0,1-2.35,9.53,14.3,14.3,0,0,1-6.46,5.62A22.76,22.76,0,0,1,276.14,925.58Z"/><path class="cls-1" d="M316.88,925.58a25.66,25.66,0,0,1-9.17-1.51,17.81,17.81,0,0,1-6.22-3.71q-2.24-2.19-2.23-4.19a4.52,4.52,0,0,1,.51-2,6,6,0,0,1,1.36-1.79,2.62,2.62,0,0,1,1.79-.76,3.11,3.11,0,0,1,2.12.92q1,.91,2.43,2.19a13.67,13.67,0,0,0,3.59,2.23,15.52,15.52,0,0,0,10.64,0,7.89,7.89,0,0,0,3.59-2.79,8.11,8.11,0,0,0,1.31-4.74,8.58,8.58,0,0,0-1.39-5,11.64,11.64,0,0,0-3.75-3.35,44.87,44.87,0,0,0-5.06-2.47q-2.72-1.11-5.5-2.39a25.57,25.57,0,0,1-5.11-3.07,13.29,13.29,0,0,1-3.7-4.54,15.22,15.22,0,0,1-1.4-6.9,15,15,0,0,1,1.64-7.34,12.92,12.92,0,0,1,4.34-4.7,18.79,18.79,0,0,1,6-2.51,28.26,28.26,0,0,1,6.46-.76,40.46,40.46,0,0,1,4.42.28,29,29,0,0,1,4.75,1,12.21,12.21,0,0,1,3.82,1.79,3.3,3.3,0,0,1,1.52,2.71,6,6,0,0,1-1.56,3.75,2.56,2.56,0,0,1-1.95.8,4.58,4.58,0,0,1-2.31-.76,21.54,21.54,0,0,0-3.31-1.52,15.87,15.87,0,0,0-5.38-.75,15.5,15.5,0,0,0-5.14.79,7.82,7.82,0,0,0-3.55,2.36,7.08,7.08,0,0,0,.12,8.29,11.52,11.52,0,0,0,3.71,2.79,52.6,52.6,0,0,0,5.06,2.19,54.93,54.93,0,0,1,5.5,2.43,26.29,26.29,0,0,1,5.1,3.39,14.28,14.28,0,0,1,3.75,5.06,18.43,18.43,0,0,1,1.39,7.62,17.76,17.76,0,0,1-2.35,9.53,14.3,14.3,0,0,1-6.46,5.62A22.76,22.76,0,0,1,316.88,925.58Z"/><path class="cls-1" d="M347.17,924.94a6.29,6.29,0,0,1-2.91-.67,2.25,2.25,0,0,1-1.31-2.12V869.37a2.15,2.15,0,0,1,1.31-2.07,6.94,6.94,0,0,1,5.82,0,2.15,2.15,0,0,1,1.32,2.07v52.78a2.25,2.25,0,0,1-1.32,2.12A6.24,6.24,0,0,1,347.17,924.94Z"/><path class="cls-1" d="M379.14,925.42a22.48,22.48,0,0,1-9.05-1.75,13.69,13.69,0,0,1-6.37-5.66q-2.36-3.91-2.36-10.37v-23.2q0-6.47,2.36-10.36a13.58,13.58,0,0,1,6.37-5.66,24.46,24.46,0,0,1,18.22,0,13.79,13.79,0,0,1,6.46,5.66q2.4,3.9,2.39,10.36v23.2q0,6.47-2.39,10.37a13.9,13.9,0,0,1-6.46,5.66A22.9,22.9,0,0,1,379.14,925.42Zm0-7.49a9.59,9.59,0,0,0,7-2.51q2.55-2.52,2.55-7.78v-23.2q0-5.27-2.51-7.77a10.95,10.95,0,0,0-13.95,0c-1.68,1.67-2.51,4.26-2.51,7.77v23.2q0,5.26,2.47,7.78A9.29,9.29,0,0,0,379.14,917.93Z"/><path class="cls-1" d="M411.28,924.94a6,6,0,0,1-2.92-.71,2.27,2.27,0,0,1-1.31-2.08v-52.7a2.21,2.21,0,0,1,1.31-2.15,6.55,6.55,0,0,1,2.92-.64,7,7,0,0,1,2.59.44,5.14,5.14,0,0,1,1.95,1.47,15.91,15.91,0,0,1,1.83,2.88L435.35,906v-36.6a2.15,2.15,0,0,1,1.32-2.07,6.94,6.94,0,0,1,5.82,0,2.15,2.15,0,0,1,1.32,2.07v52.78a2.26,2.26,0,0,1-1.32,2.08,6,6,0,0,1-2.91.71,5.32,5.32,0,0,1-2.87-.79,6.45,6.45,0,0,1-2.15-2.32L415.5,885.56v36.59a2.27,2.27,0,0,1-1.31,2.08A6,6,0,0,1,411.28,924.94Z"/><path class="cls-1" d="M792.2,364.54a7.79,7.79,0,0,1-3.31-.72,3.57,3.57,0,0,1-2-2.15L771,310a2.32,2.32,0,0,1-.16-.71,2.36,2.36,0,0,1,.84-1.8,6.76,6.76,0,0,1,2.07-1.23,6.53,6.53,0,0,1,2.35-.48,4.19,4.19,0,0,1,1.92.4,1.9,1.9,0,0,1,1,1.35L792.2,353l13.08-45.45a2.17,2.17,0,0,1,1.11-1.35,4,4,0,0,1,1.84-.4,6.41,6.41,0,0,1,2.39.48,6.79,6.79,0,0,1,2,1.23,2.36,2.36,0,0,1,.84,1.8,1.87,1.87,0,0,1,0,.32,1.41,1.41,0,0,0,0,.39l-15.79,51.67a3.57,3.57,0,0,1-2,2.15A8,8,0,0,1,792.2,364.54Z"/><path class="cls-1" d="M824,364.06a6.18,6.18,0,0,1-2.91-.68,2.23,2.23,0,0,1-1.31-2.11V308.49a2.15,2.15,0,0,1,1.31-2.07,6.94,6.94,0,0,1,5.82,0,2.14,2.14,0,0,1,1.32,2.07v52.78a2.22,2.22,0,0,1-1.32,2.11A6.15,6.15,0,0,1,824,364.06Z"/><path class="cls-1" d="M853.43,364.7a25.74,25.74,0,0,1-9.17-1.52,17.65,17.65,0,0,1-6.22-3.7c-1.48-1.46-2.23-2.86-2.23-4.19a4.38,4.38,0,0,1,.52-2,6.2,6.2,0,0,1,1.36-1.8,2.62,2.62,0,0,1,1.79-.75,3.08,3.08,0,0,1,2.11.91c.67.62,1.48,1.35,2.43,2.2a14,14,0,0,0,3.59,2.23,15.7,15.7,0,0,0,10.65,0,7.81,7.81,0,0,0,3.58-2.79,8.05,8.05,0,0,0,1.32-4.75,8.55,8.55,0,0,0-1.4-5,11.59,11.59,0,0,0-3.74-3.35,44.21,44.21,0,0,0-5.07-2.47c-1.8-.74-3.64-1.54-5.5-2.39a26,26,0,0,1-5.1-3.07,13.26,13.26,0,0,1-3.71-4.55,15.15,15.15,0,0,1-1.39-6.89,15,15,0,0,1,1.63-7.34,13,13,0,0,1,4.35-4.7,18.47,18.47,0,0,1,6-2.51,28.24,28.24,0,0,1,6.45-.76,38.27,38.27,0,0,1,4.43.28,27.85,27.85,0,0,1,4.74,1,12.27,12.27,0,0,1,3.83,1.79,3.29,3.29,0,0,1,1.52,2.71,5.62,5.62,0,0,1-.4,1.87,5.41,5.41,0,0,1-1.16,1.88,2.57,2.57,0,0,1-2,.79,4.62,4.62,0,0,1-2.31-.75,21.48,21.48,0,0,0-3.31-1.52,15.91,15.91,0,0,0-5.39-.76,15.53,15.53,0,0,0-5.14.8,7.86,7.86,0,0,0-3.55,2.35,7.14,7.14,0,0,0,.12,8.3A11.63,11.63,0,0,0,850.8,327a53.71,53.71,0,0,0,5.06,2.19,55.08,55.08,0,0,1,5.51,2.43,26.29,26.29,0,0,1,5.1,3.39,14.4,14.4,0,0,1,3.75,5.06,18.6,18.6,0,0,1,1.39,7.62,17.73,17.73,0,0,1-2.35,9.52,14.32,14.32,0,0,1-6.46,5.63A22.8,22.8,0,0,1,853.43,364.7Z"/><path class="cls-1" d="M883.73,364.06a6.15,6.15,0,0,1-2.91-.68,2.22,2.22,0,0,1-1.32-2.11V308.49a2.14,2.14,0,0,1,1.32-2.07,6.94,6.94,0,0,1,5.82,0,2.13,2.13,0,0,1,1.31,2.07v52.78a2.21,2.21,0,0,1-1.31,2.11A6.18,6.18,0,0,1,883.73,364.06Z"/><path class="cls-1" d="M915.7,364.54a22.41,22.41,0,0,1-9.05-1.75,13.76,13.76,0,0,1-6.38-5.66q-2.35-3.92-2.35-10.37v-23.2q0-6.46,2.35-10.37a13.76,13.76,0,0,1,6.38-5.66,24.59,24.59,0,0,1,18.22,0,13.94,13.94,0,0,1,6.46,5.66q2.38,3.92,2.39,10.37v23.2q0,6.47-2.39,10.37a13.94,13.94,0,0,1-6.46,5.66A22.93,22.93,0,0,1,915.7,364.54Zm0-7.5a9.56,9.56,0,0,0,7-2.51q2.55-2.5,2.55-7.77v-23.2q0-5.26-2.51-7.77a10.93,10.93,0,0,0-14,0q-2.5,2.5-2.51,7.77v23.2c0,3.51.83,6.1,2.47,7.77A9.28,9.28,0,0,0,915.7,357Z"/><path class="cls-1" d="M947.83,364.06a6,6,0,0,1-2.91-.72,2.23,2.23,0,0,1-1.31-2.07v-52.7a2.19,2.19,0,0,1,1.31-2.15,6.54,6.54,0,0,1,2.91-.64,6.91,6.91,0,0,1,2.59.44,5.09,5.09,0,0,1,2,1.47,16.34,16.34,0,0,1,1.83,2.87l17.7,34.53v-36.6a2.14,2.14,0,0,1,1.32-2.07,6.94,6.94,0,0,1,5.82,0,2.15,2.15,0,0,1,1.31,2.07v52.78a2.24,2.24,0,0,1-1.31,2.07,6,6,0,0,1-2.91.72,5.19,5.19,0,0,1-2.87-.8,6.44,6.44,0,0,1-2.16-2.31l-19.05-36.28v36.6a2.23,2.23,0,0,1-1.32,2.07A6,6,0,0,1,947.83,364.06Z"/><path class="cls-2" d="M768.77,782.77h-105a10.25,10.25,0,0,1-10.25-10.25v-105a10.25,10.25,0,0,1,10.25-10.25h105A10.25,10.25,0,0,1,779,667.48v105A10.25,10.25,0,0,1,768.77,782.77Z"/><path class="cls-3" d="M935.06,950.66h-118a10.26,10.26,0,0,1-10.25-10.26V720.73a10.25,10.25,0,0,1,10.25-10.25h118a10.26,10.26,0,0,1,10.25,10.25V940.54A10.15,10.15,0,0,1,935.06,950.66Z"/><path class="cls-4" d="M745.07,899.67H693a10.26,10.26,0,0,1-10.25-10.26v-52A10.25,10.25,0,0,1,693,827.11h52.05a10.24,10.24,0,0,1,10.25,10.25v52A10.25,10.25,0,0,1,745.07,899.67Z"/></svg>