<?xml version="1.0" encoding="utf-8"?>
<!-- Generator: Adobe Illustrator 28.0.0, SVG Export Plug-In . SVG Version: 6.00 Build 0)  -->
<svg version="1.1" id="Слой_1" xmlns="http://www.w3.org/2000/svg" xmlns:xlink="http://www.w3.org/1999/xlink" x="0px" y="0px"
	 viewBox="0 0 1600 1600" style="enable-background:new 0 0 1600 1600;" xml:space="preserve">
<style type="text/css">
	.st0{fill:#39527A;stroke:#FFFFFF;stroke-width:7.9382;stroke-miterlimit:10;}
</style>
<path class="st0" d="M1223.4,672.9c0,121.5-39.4,233.6-105.8,324.7l335,335.3c33.1,33.1,33.1,86.8,0,119.9
	c-33.1,33.1-86.8,33.1-119.9,0l-335-335.3c-91,66.7-203.2,105.8-324.7,105.8c-304,0-550.4-246.3-550.4-550.4S369,122.5,673,122.5
	S1223.4,368.9,1223.4,672.9z M673,1053.9c210.4,0,381-170.6,381-381s-170.6-381-381-381s-381,170.6-381,381S462.6,1053.9,673,1053.9
	z"/>
</svg>
