<?xml version="1.0" encoding="utf-8"?>
<!-- Generator: Adobe Illustrator 28.0.0, SVG Export Plug-In . SVG Version: 6.00 Build 0)  -->
<svg version="1.1" id="Слой_1" xmlns="http://www.w3.org/2000/svg" xmlns:xlink="http://www.w3.org/1999/xlink" x="0px" y="0px"
	 viewBox="0 0 1600 1600" style="enable-background:new 0 0 1600 1600;" xml:space="preserve">
<style type="text/css">
	.st0{fill:#F8A541;}
</style>
<path class="st0" d="M186.9,274.5c-96.6,0-175.2,78.6-175.2,175.2v175.2c0,24.1,20.3,43,43,50.9c51.5,17.8,88.4,66.8,88.4,124.3
	s-36.9,106.5-88.4,124.3c-22.7,7.9-43,26.8-43,50.9v175.2c0,96.6,78.6,175.2,175.2,175.2h1226.2c96.6,0,175.2-78.6,175.2-175.2
	V975.2c0-24.1-20.3-43-43-50.9c-51.5-17.8-88.4-66.8-88.4-124.3s36.9-106.5,88.4-124.3c22.7-7.9,43-26.8,43-50.9V449.7
	c0-96.6-78.6-175.2-175.2-175.2H186.9z M362.1,581V1019c0,24.1,19.7,43.8,43.8,43.8h788.2c24.1,0,43.8-19.7,43.8-43.8V581
	c0-24.1-19.7-43.8-43.8-43.8H405.9C381.8,537.2,362.1,557,362.1,581z M274.5,537.2c0-48.4,39.1-87.6,87.6-87.6h875.8
	c48.4,0,87.6,39.1,87.6,87.6v525.5c0,48.4-39.1,87.6-87.6,87.6H362.1c-48.4,0-87.6-39.1-87.6-87.6V537.2z"/>
</svg>
