<?xml version="1.0" encoding="utf-8"?>
<!-- Generator: Adobe Illustrator 24.1.2, SVG Export Plug-In . SVG Version: 6.00 Build 0)  -->
<svg version="1.1" id="Capa_1" xmlns="http://www.w3.org/2000/svg" xmlns:xlink="http://www.w3.org/1999/xlink" x="0px" y="0px"
	 viewBox="0 0 100 100" style="enable-background:new 0 0 100 100;" xml:space="preserve">
<style type="text/css">
	.st0{fill:#003D63;}
</style>
<circle class="st0" cx="219.4" cy="19.2" r="2.5"/>
<circle class="st0" cx="230.7" cy="24.8" r="2.5"/>
<circle class="st0" cx="239.7" cy="33.2" r="2.5"/>
<circle class="st0" cx="246" cy="44" r="2.5"/>
<circle class="st0" cx="248.9" cy="56.5" r="2.5"/>
<circle class="st0" cx="248" cy="69.5" r="2.5"/>
<circle class="st0" cx="243.3" cy="81.2" r="2.5"/>
<circle class="st0" cx="235.5" cy="90.9" r="2.5"/>
<circle class="st0" cx="225.3" cy="98" r="2.5"/>
<circle class="st0" cx="213.1" cy="101.8" r="2.5"/>
<circle class="st0" cx="200" cy="101.8" r="2.5"/>
<circle class="st0" cx="187.9" cy="98" r="2.5"/>
<circle class="st0" cx="177.6" cy="90.9" r="2.5"/>
<circle class="st0" cx="169.9" cy="81.2" r="2.5"/>
<circle class="st0" cx="165.2" cy="69.5" r="2.5"/>
<circle class="st0" cx="164.2" cy="56.5" r="2.5"/>
<circle class="st0" cx="50" cy="5.8" r="2.5"/>
<circle class="st0" cx="62.8" cy="7.7" r="2.5"/>
<circle class="st0" cx="74.1" cy="12.9" r="2.5"/>
<circle class="st0" cx="83.3" cy="21" r="2.5"/>
<circle class="st0" cx="90.1" cy="31.4" r="2.5"/>
<circle class="st0" cx="93.7" cy="43.5" r="2.5"/>
<circle class="st0" cx="93.7" cy="56.5" r="2.5"/>
<circle class="st0" cx="90.1" cy="68.6" r="2.5"/>
<circle class="st0" cx="83.3" cy="79" r="2.5"/>
<circle class="st0" cx="74.1" cy="87.1" r="2.5"/>
<circle class="st0" cx="62.8" cy="92.3" r="2.5"/>
<circle class="st0" cx="50" cy="94.2" r="2.5"/>
<circle class="st0" cx="37.2" cy="92.3" r="2.5"/>
<circle class="st0" cx="25.9" cy="87.1" r="2.5"/>
<circle class="st0" cx="16.7" cy="79" r="2.5"/>
<circle class="st0" cx="9.9" cy="68.6" r="2.5"/>
<circle class="st0" cx="6.3" cy="56.5" r="2.5"/>
<circle class="st0" cx="6.3" cy="43.5" r="2.5"/>
<circle class="st0" cx="9.9" cy="31.4" r="2.5"/>
<circle class="st0" cx="16.7" cy="21" r="2.5"/>
<circle class="st0" cx="25.9" cy="12.9" r="2.5"/>
<circle class="st0" cx="37.2" cy="7.7" r="2.5"/>
<circle class="st0" cx="50" cy="5.8" r="2.5"/>
<circle class="st0" cx="173.4" cy="33.2" r="2.5"/>
<circle class="st0" cx="182.5" cy="24.8" r="2.5"/>
<circle class="st0" cx="193.7" cy="19.2" r="2.5"/>
<circle class="st0" cx="205.9" cy="16.6" r="2.5"/>
</svg>
