<?xml version="1.0" encoding="utf-8"?>
<!-- Generator: Adobe Illustrator 24.1.2, SVG Export Plug-In . SVG Version: 6.00 Build 0)  -->
<svg version="1.1" id="Слой_1" xmlns="http://www.w3.org/2000/svg" xmlns:xlink="http://www.w3.org/1999/xlink" x="0px" y="0px"
	 viewBox="0 0 840.6 241.9" style="enable-background:new 0 0 840.6 241.9;" xml:space="preserve">
<style type="text/css">
	.st0{fill:#F8A541;}
	.st1{fill:#39527A;}
	.st2{fill:#61B357;}
	.st3{fill-rule:evenodd;clip-rule:evenodd;fill:#FFFFFF;}
	.st4{fill-rule:evenodd;clip-rule:evenodd;fill:#242526;}
</style>
<rect x="263" y="0" class="st0" width="577.5" height="96.8"/>
<rect x="263" y="118.3" class="st1" width="577.5" height="64.5"/>
<rect x="263" y="198.9" class="st2" width="577.5" height="43"/>
<path class="st3" d="M470.3,242.3H403l-68.1-105.7h-56.3v105.7H0V0.4h415.9c22.3,13.2,31.9,35,31.9,60.3c0,32.3-18,60.3-54.7,71.1
	h1.6L470.3,242.3z"/>
<path id="Combined-Shape-2" class="st4" d="M156.3,41.1V15.3C167.9,5.4,182.6,0,197.8,0c48.2,0,64.8,29.4,64.9,65.7H248
	c1.1-29.1-12.6-51.5-47.9-51.5C181.6,14.1,164.6,24.6,156.3,41.1z M361.4,123.6l80.9,118.3h-22.2L344,124h-69.2V1h79.1
	c51.6,0.8,72.3,26.9,72.3,60.6C426.2,93.4,405,120.2,361.4,123.6L361.4,123.6z M72.3,130.1L126.5,0.9H146v238.1h-18.7V35.4L72.3,165
	l-55-129.6v203.7H0V0.9h18.2L72.3,130.1z M350.4,14h-59.3v96.9h59.3c38.4-0.6,59.7-22.7,59.7-49.2S391.2,14.6,350.4,14z M156.3,71.3
	c3.3,4.2,6.8,8.1,10.6,11.8c6,5.4,12.6,10,19.8,13.7c28.7,14.9,53.3,29.4,63,37.7c13.4,11.6,20.1,24.4,20.1,38.4
	c0.1,29.9-11.5,50.1-34.9,60.6c-17.1,7.7-40.7,8-60.8,1.8c-6.2-2.1-12.1-4.9-17.7-8.3v-18.2c7.2,5.3,12.6,8.9,16.3,10.6
	c8.3,3.7,17.2,5.9,26.3,6.3c34,0.9,54.4-21,54.4-44.8c0-9.3-1.5-19.8-9.1-28.6c-8.4-9.7-22.7-17.9-37.8-26.4
	c-9.1-5.1-17.9-10.8-27.4-15.9c-8.2-4.5-15.8-10-22.7-16.3V71.3z"/>
</svg>
