<?xml version="1.0" encoding="utf-8"?>
<!-- Generator: Adobe Illustrator 24.1.2, SVG Export Plug-In . SVG Version: 6.00 Build 0)  -->
<svg version="1.1" id="Слой_1" xmlns="http://www.w3.org/2000/svg" xmlns:xlink="http://www.w3.org/1999/xlink" x="0px" y="0px"
	 viewBox="0 0 241.9 241.9" style="enable-background:new 0 0 241.9 241.9;" xml:space="preserve">
<style type="text/css">
	.st0{fill:#F8A541;}
	.st1{fill:#39527A;}
	.st2{fill:#61B357;}
</style>
<path class="st0" d="M98,104.4H19.1c-4.2,0-7.7-3.4-7.7-7.7V17.8c0-4.2,3.4-7.7,7.7-7.7H98c4.2,0,7.7,3.4,7.7,7.7v78.9
	C105.7,101,102.2,104.4,98,104.4z"/>
<path class="st1" d="M222.9,230.5h-88.6c-4.2,0-7.7-3.4-7.7-7.7V57.8c0-4.2,3.4-7.7,7.7-7.7h88.6c4.2,0,7.7,3.4,7.7,7.7v165.1
	C230.6,227.1,227.2,230.5,222.9,230.5z"/>
<path class="st2" d="M80.2,192.2H41.1c-4.2,0-7.7-3.4-7.7-7.7v-39.1c0-4.2,3.4-7.7,7.7-7.7h39.1c4.2,0,7.7,3.4,7.7,7.7v39.1
	C87.9,188.8,84.4,192.2,80.2,192.2z"/>
</svg>
