<svg id="Слой_1" data-name="Слой 1" xmlns="http://www.w3.org/2000/svg" viewBox="0 0 1000 946"><defs><style>.cls-1{fill:#fff;}.cls-2{fill:#39527a;}.cls-3{fill:#f8a541;}.cls-4{fill:#61b357;}.cls-10,.cls-11,.cls-12,.cls-13,.cls-14,.cls-15,.cls-5,.cls-6,.cls-7,.cls-8,.cls-9{fill:none;stroke-linecap:round;stroke-miterlimit:10;}.cls-15,.cls-5{stroke:#4d4d4d;}.cls-5{stroke-width:10.43px;}.cls-10,.cls-11,.cls-12,.cls-13,.cls-14,.cls-6,.cls-7,.cls-8,.cls-9{stroke:#fff;}.cls-6{stroke-width:1.75px;}.cls-7{stroke-width:1.85px;}.cls-8{stroke-width:1.66px;}.cls-9{stroke-width:1.11px;}.cls-10{stroke-width:1.17px;}.cls-11{stroke-width:1.05px;}.cls-12{stroke-width:0.79px;}.cls-13{stroke-width:0.84px;}.cls-14{stroke-width:0.75px;}.cls-15{stroke-width:23.22px;stroke-dasharray:486.51 278;}</style></defs><rect class="cls-1" x="30" y="30" width="940" height="886.14" rx="42.49"/><circle class="cls-2" cx="353.18" cy="354.92" r="210.24"/><circle class="cls-3" cx="692" cy="603.38" r="133.79"/><circle class="cls-4" cx="404.44" cy="725.88" r="96.43"/><line class="cls-5" x1="598.17" y1="205.49" x2="839.69" y2="205.49"/><line class="cls-5" x1="652.03" y1="238.5" x2="839.69" y2="238.5"/><line class="cls-5" x1="711.11" y1="271.52" x2="839.69" y2="271.52"/><circle class="cls-1" cx="353.18" cy="354.92" r="38.23"/><circle class="cls-1" cx="692" cy="603.38" r="26.06"/><circle class="cls-1" cx="403.57" cy="726.75" r="10.43"/><circle class="cls-6" cx="354.05" cy="355.79" r="184.05"/><circle class="cls-7" cx="354.05" cy="355.79" r="193.73"/><circle class="cls-8" cx="354.05" cy="355.79" r="174.36"/><circle class="cls-9" cx="692.87" cy="604.25" r="116.37"/><circle class="cls-10" cx="692.87" cy="604.25" r="122.5"/><circle class="cls-11" cx="692.87" cy="604.25" r="110.25"/><circle class="cls-12" cx="404.44" cy="725.88" r="83.36"/><circle class="cls-13" cx="404.44" cy="725.88" r="87.74"/><circle class="cls-14" cx="404.44" cy="725.88" r="78.97"/><rect class="cls-15" x="67.36" y="62.14" width="870.5" height="819.24" rx="26.52"/></svg>