<?xml version="1.0" encoding="utf-8"?>
<!-- Generator: Adobe Illustrator 24.1.2, SVG Export Plug-In . SVG Version: 6.00 Build 0)  -->
<svg version="1.1" id="Слой_1" xmlns="http://www.w3.org/2000/svg" xmlns:xlink="http://www.w3.org/1999/xlink" x="0px" y="0px"
	 viewBox="0 0 25 25" style="enable-background:new 0 0 25 25;" xml:space="preserve">
<style type="text/css">
	.st0{fill:#39527A;}
	.st1{fill:none;stroke:#FFFFFF;stroke-width:0.5;stroke-miterlimit:10;}
	.st2{fill:none;}
	.st3{fill:#FFFFFF;}
</style>
<circle class="st0" cx="12.5" cy="12.5" r="12.5"/>
<circle class="st1" cx="12.5" cy="12.5" r="11.5"/>
<g>
	<rect x="3.5" y="8.1" class="st2" width="18.5" height="9.1"/>
	<path class="st3" d="M5.2,8.4h3.7c0.4,0,0.7,0.1,1.1,0.2c0.3,0.2,0.6,0.4,0.8,0.6c0.2,0.3,0.4,0.6,0.5,0.9s0.2,0.7,0.2,1
		c0,0.3,0,0.6-0.1,0.8s-0.2,0.5-0.3,0.7s-0.3,0.4-0.5,0.6c-0.2,0.2-0.4,0.3-0.7,0.4l2,3.2h-1.5l-1.8-3h-2v3H5.2V8.4z M8.9,12.7
		c0.2,0,0.4,0,0.5-0.1c0.2-0.1,0.3-0.2,0.4-0.3s0.2-0.3,0.3-0.5s0.1-0.4,0.1-0.6c0-0.2,0-0.4-0.1-0.6S9.9,10.2,9.8,10
		C9.6,9.9,9.5,9.8,9.3,9.7C9.2,9.6,9,9.6,8.8,9.6H6.5v3.2H8.9z"/>
	<path class="st3" d="M17.8,15.5c0.3-0.2,0.5-0.4,0.7-0.7s0.3-0.6,0.4-1c0.1-0.4,0.1-0.7,0.1-1.1V8.4h1.4v4.3c0,0.6-0.1,1.1-0.2,1.6
		c-0.1,0.5-0.4,1-0.6,1.4c-0.3,0.4-0.7,0.7-1.1,0.9s-1,0.3-1.7,0.3c-0.7,0-1.3-0.1-1.7-0.4c-0.5-0.2-0.8-0.6-1.1-0.9
		c-0.3-0.4-0.5-0.9-0.6-1.4s-0.2-1-0.2-1.6V8.4h1.3v4.3c0,0.4,0,0.8,0.1,1.1c0.1,0.4,0.2,0.7,0.4,1c0.2,0.3,0.4,0.5,0.7,0.7
		s0.7,0.3,1.1,0.3C17.1,15.7,17.5,15.6,17.8,15.5z"/>
</g>
</svg>
